<mxfile host="app.diagrams.net" agent="Mozilla/5.0 (X11; Linux x86_64) AppleWebKit/537.36 (KHTML, like Gecko) Chrome/134.0.0.0 Safari/537.36" version="26.0.8">
  <diagram name="Page-1" id="8HSMHhrAlhLLFfg2mLL0">
    <mxGraphModel dx="994" dy="538" grid="1" gridSize="10" guides="1" tooltips="1" connect="1" arrows="1" fold="1" page="1" pageScale="1" pageWidth="850" pageHeight="1100" math="0" shadow="0">
      <root>
        <mxCell id="0" />
        <mxCell id="1" parent="0" />
        <mxCell id="9b4McayZEU2Zc8lyel-h-47" value="" style="shape=image;verticalLabelPosition=bottom;labelBackgroundColor=default;verticalAlign=top;aspect=fixed;imageAspect=0;image=https://getlogo.net/wp-content/uploads/2020/11/supabase-logo-vector.png;" vertex="1" parent="1">
          <mxGeometry x="306" y="330" width="110" height="61.11" as="geometry" />
        </mxCell>
        <mxCell id="9b4McayZEU2Zc8lyel-h-44" value="" style="rounded=1;whiteSpace=wrap;html=1;" vertex="1" parent="1">
          <mxGeometry x="480" y="90" width="410" height="480" as="geometry" />
        </mxCell>
        <mxCell id="9b4McayZEU2Zc8lyel-h-2" value="" style="shape=image;verticalLabelPosition=bottom;labelBackgroundColor=default;verticalAlign=top;aspect=fixed;imageAspect=0;image=data:image/png,iVBORw0KGgoAAAANSUhEUgAAAawAAAOMCAYAAAAR+4ezAAAACXBIWXMAAAsTAAALEwEAmpwYAAAAAXNSR0IArs4c6QAAAARnQU1BAACxjwv8YQUAAHhLSURBVHgB7d0HYCNXgf/x34yaLbm37ekk9CTUFBII4ej1Dxxw3NEPuAOOchyhhd577xB6DS2VhPSekEpJSN++695l9fm/N5K83s0We9eS/ezvJyy7tmVLHs2832vznqd5dMNVtxyjwH+i/MD8LfunTZ4OEQBg6Qu03pT56xUEt0n+/fJKlz/uCcfeqnni6QD95cpbnhRIzzc/6pXmp7UJAICqcohdZv7x5QMNr/0OrDCoPO+D5p9PEgAA+3arL+9Lj3nC0T/SfphzYBFUAIADYlpdxUJwyvGnHLt+Lt8268C65dJb2gox/4OBgrcJAIADFJjWVjxf+vCxpxw7MpvHzyqwrr30lkMiUe9SJlAAAObVHFpb+wysqy695Zh4OayYUAEAqAXTwgpO2dekDH9vX7zx2tteGY95txBWAIAaMhnj3WIzZ28P2mMLK2xZ2bCao8HBAd3211u1adMm3XXPnZqamlI6nRYAYOlKJpPq6OhUZ0eXjjrySB39yGPU2dmluQuO3VNLa7eBVRmzmlPL6trrrgn/3HX3nQIAYO3adTr1lKfo+ONOmMu3jRTzwbG7G9N6QGDZ2YD5clgdolm466479aOfnmFaVoMCAGBXnZ2devYznzv74Aq0PlYIjt119mB018fZqevm0YdoH2w33znnna1LLr1IAADsiW3Q/OgnZ2jz5k161rOeo2Rjcu/fYBpMuTCL9PadPz1D2BUY8+7XLJ78m9/5evjkAADMlm1tveOt75zV+FYxCE45/qRjL6t+vNMswfBeq32wYfWFL3+WsAIAzFk5Qz4XTtDbl0h5VaVp04F1wxW3vGpf41a2G9CGFeNVAID9Ve6l+4bSU/ucQf6ka6+85UnVD6YDy/O9t+7rO+2YFWEFADhQtpfu3HPP3ufjZraywsC64dJbjgmkY/b2TXbKOhMsAADz5WKTKXam+T5Mt7LCwAoi2ueCtuecd5YAAJhP9raofYmEey5WAsvzvCfu7cG2dUVXIABgvtlssRmzV54XLtnk2+7AfU22uPjSPwsAgFrYZ2BJbTdcdcsxfim2940Ybfpt3rxZAADUgl3Sb1/T3EtmLMv3g723rm7765zXvwUAYE5uvW2vO4vI97yjfdM3ePTeHnQni9kCAGpsn4tRBDrG1z5aWLO5GxkAgANht6Paq0Bt/r4mXAwNDgkAgFpKp6f2/gCTVb729UOm2HwRAFBbU7PImqgAHJBSqaSpzJTy+byKxWL4seV7viLRiBLxhOLxuCKRiADsPwIL2E82nMYnxsOg2p1SUFIpXyp/fVJqSDSE24gTXMD+IbCA/TA1NRXuXmBDabYy2YyyuWwYWvvcwA7AAxBYwBxNpifDsNofQRBocnIy/DuVTAnA7O1z0gWAHaotqwNlfwYTmoC5IbCAWbJjVvMRVlX2Z9mfCWB2CCxgluY6ZrUvtlvQTtoAMDsEFjALtiVkJ03MNzuDsDoNHsDeLarAshfuXC7efT1+rj8P2JNcLqdasfdwAbbFbf9Uy63qx/bPfCoUCvt8jK2g2XPe/llM3daLYpbgrvez2PtVUqmUfH/3eWoPuH189cBHI1G1tLTsdH/LxOREOEBu2c/bGVmJRELA/rDT0WtlT/dxYXnYUyjN/Jz9t+d54Z8DYWe42jBsbmre7derQTmzol/9t33uPZXJ9bIoWlijY6MqmdBqbWlVU6op7HrZU63ThtvY+JgCcxDt4+0fe0Dt56psUNk/jQ2NamttCw+0DThaW9hfxULtapmlIuflclQNhtm2oOb6+F3N5nYM2wiwZeyuYWk/N5uWWa0teGDl8uUmZ9K0gOzyNY2NjeFSNtXWkZXJZMI/VbFYTM3NLeHj7Z9EQ6J8oEvlQsUGXtS0qpqamsLH2hC0B72W3TpY2uZzssWuquctlo8D6erbn+89kHsHF5MFD6xq7XJmU9euvxameuVCtq2t6mwq271nm7M2iKpsl0rENFUjfrlL0IaXP6N7sNqMpWAAsBgc6LjUXL5/qYSVteBjWNVxp0KxoITKY0y7dpG0mNbUrm+QDSU7TmVbZzbqWkzX4EwL3deKpcWeT7XqUj7QcQm450DPp9mWb0sprKwFDyzbUrJ/wntcTFDZVlB1ENpT+ULe3WKh9iK3n7dvXDabDQfFo1FWmkJt2HOtVoHFebs82TJsf1payzWsrEVxpdguPjtmZVtZ8Vg8fEMKJrT29sZUuwatCX8ifGMaGhqmuwWB+WQrVbWazWfHYbH8VFvWcwmt2bbGl2JYWYsisCKVCRJWeIPmWMYUELu/iG2hYSdV2BmA1ZppNaRsC83+uxp4VdWxK8IM+8uurl6rAsBOMsLyNJfQmu209gMJKztje2+6u7q1kBZNX0Q4W7BQLE9nN2+e3YKhyra+bJDZULNvmJ0xWMgXlGoqr3Ztv8dOuqhOxLAtreriojbU7OrYvvm+mRM1gLnwKufPfLey7D2H7I+1vM2ma7AeYeWCRRNY4+PjYVAlzAVsp7bPvIhtiyoIxw+awgCy915NTIxrdLRcG7A3Dje3tEw/Pty2wbz/NqgsG1ZNpvuQggEHwnZBj4yMzNsUd3tezqyYYfna1yQMwqps0QRWZ0fnHr/W3ta+05tp+/w7zOOntyLfzViXXSnDBt+evg7Mla3w2ICxs1Png733kEoUqvYUWrMpv5ZDWFnOTE/a3Zu2rzeSoMJ8s5WgcBPG9KQOhO0FqFaogKpduwcJq50xnxaYI9vKsgXL/mw3Uu4GJKywezMnYdAN+EAEFrAfbODYrmlbWMx225FwSTHGUrEP4QSL8j/2+ji7eILtQrSTzOYiFt3z5DM7R2BPawZGFkGPFYEF7KfwXsDm5rDFZdeptDevF20hUunSsd059jH23kJbqNBFjVmbRevKhsueVl3fX3a+wGJGYAEHyIaSbXHRzQfUFlU+AIATCCwAgBMILACAEwgsAIATCCwAgBMILACAEwgsAIATCCwAgBMILACAEwgsAIATCCwAgBMILACAEwgsAIATCCwAgBMILACAEwgsAIATCCwAgBMILACAEwgsAIATCCwAgBMILACAEwgsAIATCCwAgBMILACAEwgsAIATCCwAgBMILACAEwgsAIATCCwAgBMILACAEwgsAIATCCwAgBMILACAEwgsAIATCCwAgBMILACAEwgsAIATCCwAgBMILACAEwgsAIATCCwAgBMILACAEwgsAIATCCwAgBMILACAEwgsAIATCCwAgBMILACAEwgsAIATCCwAgBMILACAEwgsAIATCCwAgBMILACAEwgsAIATCCwAgBMILACAEwgsAIATCCwAgBMILACAEwgsAIATCCwAgBMILACAEwgsAIATCCwAgBMILACAEwgsAIATCCwAgBMILACAEwgsAIATCCwAgBMILACAEwgsAIATCCwAgBMILACAEwgsAIATCCwAgBMILACAEwgsAIATCCwAgBMILACAEwgsAIATCCwAgFxAYAEAnEBgAQCcQGABAJxAYAEAnEBgAQCcQGABAJxAYAEAnEBgAQCcQGABAJxAYAEAnEBgAQCcQGABAJxAYAEAnEBgAQCcQGABAJxAYAEAnEBgAQCcQGABAJxAYAEAnEBgAQCcQGABAJxAYAEAnEBgAQCcQGABAJxAYAEAnEBgAQCcQGABAJxAYAEAnEBgAQCcQGABAJxAYAEAnEBgAQCcQGABAJxAYAEAnEBgAQCcQGABAJxAYAEAnEBgAQCcQGABAJxAYAEAnEBgAQCcQGABAJxAYAEAnEBgAQCcQGABAJxAYAEAnEBgAQCcQGABAJxAYAEAnEBgAQCcQGABAJxAYAEAnEBgAQCcQGABAJxAYAEAnEBgAQCcQGABAJxAYAEAnEBgAQCcQGABAJxAYAEAnEBgAQCcQGABAJxAYAEAnEBgAQCcQGABAJxAYAEAnEBgAQCcQGABAJxAYAEAnEBgAQCcQGABAJxAYAEAnEBgAQCcQGABAJxAYAEAnEBgAQCcQGABAJxAYAEAnEBgAQCcQGABAJxAYAEAnEBgAQCcQGABAJxAYAEAnEBgAQCcQGABAJxAYAEAnEBgAQCcQGABAJxAYAEAnEBgAQCcQGABAJxAYAEAnEBgAQCcQGABAJxAYAEAnEBgAQCcQGABAJxAYAEAnEBgAQCcQGABAJxAYAEAnEBgAQCcQGABAJxAYAEAnEBgAQCcQGABAJxAYAEAnEBgAQCcQGABAJxAYAEAnEBgAQCcQGABAJxAYAEAnEBgAQCcQGABAJxAYAEAnEBgAQCcQGABAJxAYAEAnEBgAQCcQGABAJxAYAEAnEBgAQCcQGABAJxAYAEAnEBgAQCcQGABAJxAYAEAnEBgAQCcQGABAJxAYAEAnEBgAQCcQGABAJxAYAEAnEBgAQCcQGABAJxAYAEAnEBgAQCcQGABAJxAYAEAnEBgAQCcQGABAJxAYAEAnEBgAQCcQGABAJxAYAEAnEBgAQCcQGABAJxAYAEAnEBgAQCcQGABAJxAYAEAnEBgAQCcQGABAJxAYAEAnEBgAQCcQGABAJxAYAEAnEBgAQCcQGABAJxAYAEAnEBgAQCcQGABAJwQ1TIVBIE8z1OpLaHWb71Q+baY5AmYs2hWGn3nHxW5ayQ8ryx7bgURT/G3naDoM45UUCwJmKtYIq6xz18m7+y7hWXawgpUDqtiV4NWXPZe5Voi5bAKBMyNCaicV1DPr9+syAseHp5X4alkwmrVZR9T9NkPVpAvho8D5qQUKDuRVvsHnqvmb7y8/Lllfh4tyxaWV2lKdfzidRrvvU+e71W/AOzMFhC2tWQKj0iqITxXbABFW5sU91tNHacQPiYoZnXIB9+jey55jbzRrFIff55KzYGSQU/4/eWzztPUZH/4s3zPVzGXUylbKJ9/gTj/sDNzXvh+VJntvUo+fp1Kx62Rf90WLWfLtksw3xRRvLtb2a1jUoSSAhU2OPzyXw0d7SZcSub0SMgbK2n4ylsU3DukyFRRY7dtUeH+QUUjUXlF02I3PX4DNnimCuE3T3zwLE2efpZK5twKfBNovq+S+bvhMesUdCVVSsXUdPJRSh1xiIKUae3np8zzRpQfGTLPqemgBBSPaGp4uxr+3yOVI7CWp2KxqKKyYS0Gy1hgs6EUtnKi7c1qiHUqNzqg4t+3a+DnFyran1XpvkH5JV9epTvGdPCFF040bBIVd/mB5b5lL1ses4rkq58vfxxcsj782/bFp8+4TZPmeYsmyPyHdKvQGVf7K56oyJEdiqc6lM0NKT88Xn59NrwIsGXLi0ZUitGtvGwDK17yFAuaTPeO6ZKJL9vDsDyFXXgl+aaLL9bcpIagXZO3366xT1ym0du2yx/NmXAyA96Vh0fmOsA5h2DxTPdg1GbZ3/oVN39NXvZzlcyTF7sb5T9+rVpe+wQlDzlCUxO9Kk6lFRRK5Z9Pdi0fdoJYNKrS/SNa7pZlSW1ncvmmcTViatCN//poTW3fLi8WpRBYymze2KAyXXyJLtOCibZq7OK/aPwH1ylyz6i8QrBoZiD5gRm76MtIZ9+jSfNnrCkq/4S1an7VE5V46BpNjQ+qOJ4p5yI9BEubqdDY8qql6XCNf+u7y/4+pOU56aJSA85+9jIzUBFTywtP1Pi2+8LBcC/CrWlLStiaMmGUiCjZuVal3lENfuAceZdvkJcpOnEBRCbMuNiF6zVh/oykzO/xmscp+dLjFZgXnxsdUqlQNF2aPhWupcR2P5vWdLStWY3RLm156gfl50rLfmxzWZfOtuaS/eif1fv8L5oad5MS7Z2VKciC62xQmQvetpyb1xwi/x9j6nv6FzX89K/Jv+C+MKxcFJ0sKvfVazX8hM9r5K2/kteXU/PqQ8IxjrC7EM4Lz1vTcm5cs1b5P96uvuM/alrcU+V7/Jb5OOayHrwJb+603YPrRzX2L99Q9C3Hqe21T9dk/3oFOVOrNYUAHGMvajvM0xBVU4fpPjv/ZvV//MfyTCvlQN7NwM48j3rKB0XFjuiSf0i7So2RcLaf1xJX+wmPsgOj061329oJ8r7y/f0au/oO89yRcLq7+tLK/X2bufB8+fkgHCvbH559QddtUfq6n2tsdVItH3m+mh9zuCYHtyjI5EyzLEKLyzW2kpU3XdbdHfLGixp8lqlcbZ2YvvfKY9LN8g4sq3wSBOUW+FevU99Pb1H7T14tdSeVHegvjxEwTrD42dl+xaL8eEzJlauVPu9G9X/yJ+bCz5fL7b3UTqurnsxUMn0Pxc6E4icdKv8RK5U6/ijFO7ukmKdcYUylXL5y/1650pMbGTfnyS4dFiXzmJWd6njcU+0HlZfgKdHQHk76KEyOa+LK26X7RpQ+/3bFBjKm22duCWZvgo9uTSv9OhNcPQ1q/uzzlTr6CE1u2VD+fbllwwm2Z8dPxpVauVIjnztXxZ/eVu7+2s25uZx5N1x1616vkDe+6T+1XMwsuIKnHKrOz71E2fEhFUYmmZSxmBXLkyma1h6sqRvu1sQ7/yB/LDenH2EbLOpqVPGYFWp7xUnyj2xXPNGhzOQ2kzuFsEAJl1fyDvAm35nfa+tCifJcxGTrKuWVVrB+XCO/uFK6cVsYZP4s82vmuVtYk9SKH75R+eaiqXQNmu5Cnynxi1WpPGO10VSyCvf0aew1P5GfLlbeT/uA5fW+fevr393r1wms3ahe/MWEr+avvUiNj32Qxjeulx+L0NpaTMJmsenSbUmqKejU9leYLpQNYzu+NotCurQiqfi/PlKtLzxJhWZbUJgxov7h8vtczzGDylVoC694V6v8SFyxbFxjf75BUz+60XRbj82q+3CnStdTD1XPZ16pydHNKk5k5NFNuHjY9zK8tSKhZNNqDf3fj1W6dH3la8t3rIrA2l8zTprg2BVa8f03a3Jyc7m1FWdsa6HZgt12ySV6Vip7xrXKfO3KcregvWl3H6Wy7e7zn3q4Wv77FMUO6lF6uM+M+5jxJa/SpbcYyorq7EbTTZRobVNsKq6+r52l4Jw75Y8Xqg/S7l9sMN39WIr5avrmi5V41CGa3LTJdJlGqXQtsPDcNe9NQ88KpS+9Xdn3nR/eaL5cW1UzEVgHaLrGasqy6LtOVttLT9Zk3+bybMIoU+DrzoZStqB4T7t8Mx498h9nyNs+WX6f7Nf3UjMtNceUevNJSr7w8SqUJpUZGim3WhbzjbjTLa+iYh0tamjsUvr6OzX+kXMU2TJZ+eIeauQzP3/iOq342hs1NnA3E4oWiq2E5IphCzoaJDT0qh/Ku3t4VufucrGvwKLE3YcwrCq13cKnrlD/c76sRKRZsc42M/BeYBXuerL9/aai0HLwUcr+6laNPvVrYVhND0zPuOCDGe9L0QRV4+efoxVXvkcy3WSTvZuVtWHlVSbULOZyojyvI5y2Xhid1MSW+xUcbsaozn27mn7+KhXWNe34vXc9F6s9BPbzV2/Stsedrvhg3BSYHSpl89y+UUfhLQdmoLT1oAcpe+bfNHTSl8Kwslh2a/YIrNmwW0ZUpsB7m8yg+Klf1dQZ16l93UPCyRh2eSfUmLngA3O2Nq05SL0v/IJyX7oqvNF719ZFWDhXAixojCr+yaeboHq3dGy3xrbcZ1pn+XLL2MUCwr5k89pt4TexZYMKXYFWnP1WNf3iFSr1NO4cUDO/rVLp8vMljb70O5r4yuVqPugwUwEohZUA1FBQrmQ19HQpWoip95mfU+4LV4bjV1R2547AmgNvRoFQ+PZftO1JH5W/PafUqrXhNhFc/DVQ6QKMtKbUFl2rgeM/Lf/ekR1dtTsFTyWoTKsp9p+PU88171f0+LWmcF8fdsXYVsqSqMlWgsvebza5ZaOK3b66L3yHkl96kYoxbzqgdv6eHedu6We3afjl31HD6lXlEoDNJedfUJ6qbiu0LWsO0/jnLtLEc74nr3JfFa2q/UNg7YfpGutIVpMv/6mG3vMbtR/0UMm2tlhtYP7Yi94ETcOKbhX/sl29p37CDE4XH3BvSrVVFZbkj+hW11WnKfHqR2ts8z0q2Ztoo0t02aJqi8t0V9vgCo5u0Yq/fECR5z94r62tMLT+0aehE76g1tQRirakwkoB5kfY8jet1+TKVYr2FtR30idV+tXfKu8Fq1UcCAJrf80sEC68T9sef7piG2xra3W5pUWt9cBUulISK7qU/cUtyrz9DzuCaZcLPiyEY75avvBitZzx75oY2arCyER5NudyKRxscGUKGjfdnsnT/kUd5701nGSyu9bW9Aov6YJ6T/qACrf3hceZ0DpAlQpWNNWoxs4VGn7LzzX+b3aVlfyMShZhdSAIrAM03drKljT+2p9q4OXfVbJ7pWJtLeXZWPQSzl1lNlVy3Vrlvna1Ml+6/AFdgIGC6YI4OLxNq676sPJHNyvXN1BewHg5LmJsukLtTcL5oRFN+sNaeeXp8p+z+9bWdJCZ/2Ve/zvTgt0atmQJrf1UmRDUvPZQlW7cqqETPy9du2XHMadVNS8IrPkwo0Dw7xjS4GM/o+x5t6tl3ZFhIWLXB8MsVcKq5aAjNfjv31PmJ395wNJJ4ceV6eiJ/zpRbWe+TsP9d5YrCBFWLbetLXsIRjfeqeYPPkPN3/v38NPVltW0Gcd08s2/Uf7K+01o0dKak0pPQKQ5qdbOQzXw0m9o6h1nS/kSyyrVAIE1j6q1VluY5j52qXqf9VnFMlE19vSUJ2XQ2tq76bA6Sr0v/rL8vw/sPqwqEytSP3iZ4q98tLJb7X5mrEKyEzuzNRFVdvuASkel1HLZmxR0JB4YWhX2c+l3/lHZ395e7h7MEVr7Eo5XmwpSuCSYqVj1nfgx6c7BPUwIwnwgsObbzNbWlgmNP/d7GvvGxWo76MHhQqRMytgDO06dzav5oCPU9/KvyL97aM9h1RTT6qs+otLhKeX7h8o3wVI47J4Z2yuOpZXPp7XyktOlh/fsdVwr85k/K3/5hnAadpB1cwuWmrNj1IWiGrq7FM8mNPC0L6r07ZvC9SxpVdUWgVUjO1aBD1T64a3a/oSPKD5mW1srwsVamQI/Q2UKcMvBR6j/v74n7x97blmVVqa04qoPaGj0bgWTOYllsvYtnElY1PDGO9T90zepdMKayiK+u7lfy5h61x+Uv36TaWl10j24C9sD4DfElVy9VmMfO09jz/62vN40U9XrhMCqqR33xPgTeY298HsaeusvwpmE0eZGJmVU2BuvbW114juXyasMVO9US60uRrw6pZV/erdGt9xZ/jpbZ8yeOV52HcHRDXep4+v/ptT/Pm23oVWV/p/fKX/7FkXbm5nxapkKZsmEVWrNOnkbJjRw3GcUnHUnkyrqjMCqh5ndhNdsUf9jP63iX/vUvO7w8vJOxeWbWuHU9e4O5S+7T5lvXLnbsLLHL3ryoeo8700mrO4qzwJkvGru7EpUDVFlNm+T/6IjlXr/0/caWlOvOVOmilCuGJSWaWhVNlWMpBrUuuoIDf/3jzX5ql+Gs4Lp/qs/AquOpltbhUBT//179b/s62pbcaSiranl2dqyq5E3xqRNaaXffdZuuwHDyQOPWqW2r7xSU1u2mbCi2+WAmW7U/OCw/GceoeQHn7mH0CpPee992seU6llnxl6DZXd+huPNdnLPmjXKXnav+o77sILrmKq+kAisepvR2vLuGFTf8R9U+je3VKbAK1wzb1kIyuN7Ta0HafRlPwg/tXPDqjJmtbpJHT94tcY33U1YzadYJLxfK/L0w9T0rt21tCprZ6YL6n/BV9W67sHlBXOXAzvubMbuEp1takx2aOD/fVOFD1zMVPVFgMBaIDNXgS996Tr1Pv3TavBbFetsXxarwIfT19ccrt5nfEZeYcbSSpoRVj1JrTjvXZrYvKk8bZ2CYn7Z0BocUfylx0pPPiQ8vrveXBx2Y68fU/9nf63Eyk5TaC/tmYPh+n+mVdV+0IM19dMbNHTSF+XfPxp+jUkVC4/AWkgzVoH3t6c18pSvKP2Ny9W27iFmrCG2ZO+FKS+51KnBT50pv39qp+WWghkrra+84DSNhWNWFBQ1Y0JrYuN6dX3hFQoe0fOA+7SqHwc/+6sid0+F0+SX5AzXyj2AjStXKZL2tf3UTyj/tesrvyszoxYLAmsRmLkKfPHHt2n7Ez4kb8NkeEPiklsFvmTHrRKKbSqp9Mu/T49TVVX/1Xn+2zTWe6+p7TLBotbsNO2xjfdq5U/+V6W2xG5Dyxp5zQ/U3vkQlZZSKyu8paIUrqrearrlRz96liaef4a8wSnW/1uECKxFZMcU+IImX/lLDbz5R2pf9/DynluFpVFIhOutdR6k/pd+Pfx4dzMCU19/iXKxyfLsycUYVtU1DIslRVMN4Wrn0ebk7v+0lP8E1UrHYqx72NmD8YjG+v+p9rNfb/cZfOA4jf2dcyVtfc0XlVq7Ymmcj5U9qVJ2VfVNOfXaSRV/vJNV1RexqLC4zOwau3qLtj3ufWr58kvUeMIhSm/fWp5e7OjCrraQa1y7Sr1v/HY4U3J3XYGRlzxcsceuU6ZvW7hdy4ILqv/nhdW7hs6u8svOmdc7UtDI2TepsGlY/qRpCafz5ffHluUxr7zdTHNM6kqp42mPk5rNx+0xM2bnKzs2WF5j0j4+HBvRwrKtKtMFXYhn1PmD12vo1d/ZeWX86gamf+1T5qr7FXlkh0pTeTdbv5Xuv1hHq6KxRg289ofyb+srvwVMqljUCKxFauYusRP//QuVDm5R16/eqHyQVm5g2L1JCLaxFI+qdPeIvOu27jSFffrfK5vU+p7natKMqXiJmBaULdRs96U5zvHOTkXyEU1df6/6zjhXsYGcgi1j8isV8b2ttVF9h0a+fqNKduWTJjM2eWirki88RvHHH6qGVWs0NbFNhbGpcLB/Qd/TqK/iREaFh3VKzzxCOu+end6n6ZUw/u+P6rj6NE2mN9tb4+UUO8mpWAy3qh877xqNv//P8u1K63bzTzFWuth5N1x16147Kd74pv8UFtaOxTRNmfLW49X2qqeFmxP6dnzHkdUebOuqac0a9T/pi/JHcrt8MQgXs+28/B2anOhf2IK7svlerKtVjdEujV92oya/fbW8e0blzfNYoi0ki+1mPO9FD1fXq5+ubNRURoaGyi206MK9r3Y5ppaDjlDvCR8P98za5asKT8SnHabmDz8rnBrvRIu/cgNw3L6v+Xb1/cdXpA1j5WvLfp2gWhS+9fXv7vXrjGE5YLolYgrMwpeuVf8zP6vW2CpT8zfdMpn84p8Cb153rK1ZI9+/LAyrmQP61UkXDac9WTlvanrbkHoLx5hMN1G8q03JttUaPf18bT/uI5r633Pl3zUy72Fl2Rp9dNgcj+/erL4TP6Hh1/5EiWyjGnq6w8VVwxtXF+Ctta33if6Nav95pbK6m/uzdMF9io1GtegnJASVG4CjEbWsO0IT37hSfU/82I6wYqq6Uwgsh1Rnb3lbJ9X/tM9q9GPnqv3gR5h3MbKoV4G3s8qSiVUqfP36B6xmEf57dZOaX3qC8qPj5e3s68nWvO1Nou2talpxqMbee7YGn/AZ+RfeZ8apSvWpDFR2Uo78bVCjz/u2hl/zIzVE2pVcsXK6xVdXdg+3nKkIrW2U9+yjyuNXeuCswf7XflfJVWvDySeLkl3/z65T2dOlhqm4ek/5pIKf/LVcOWGsykkElmN2Gvc5+25tO/F0xYciSvR0lG84XmRT4O2N0Q2rutX3oZ+YVsouldlKGLR869800bsp3C23rkzI28Kr9aCjlP6+abk+/qPSn+8vH8N61r7t/Xgzb5r+24BGnv5VDf73z9S4aoWizc31XzXdtEgyvf3q+OiLVWqMPGCsyr7OyOYJZW+9z4zzRRfX7Mdwq/qC/Ma4OtY+VOMfPlcjz/m2/OFsfd9XzDsCy1HTkzImCxp76fc0cdpZal/z4HCKtZ0BtXgKkCC8EVPn3FXpCtxRMIcriD/jCAXd8fKSVPUqROxzm1ZftK1JLV6Pek/+uArfvXH6JtGFLNBmVkj8G7Zq8NGfVeGGTUquXVM+RnWskNhFhqdGtyv50WdOv6ZdX+f4//1Rye7VZtxtkUxzL5ZbVeFW9bcPaNvxH1Bp+twTQeU4AstlMwq30iX3a9tjTlfu+o3lVeDzi2AVeFO42v2/+t/yI2mXOnp512Cp/SP/qvzgaP26AkvlwffGNauU+8Vt6n/G5+WNZRfdTaLTFRKTUZl3nK3R//mlec2Vfazq1QVnF2mfzCr1lGNUaI8/oAstDNWBKeWuvbu8ieZCqmxV7zXG1NFzlAZe8z1l/vsP8jJFuv+WEAJrCZhZuOXeca76X/QVtbYdrrgZlwlXylig3LJjG7F8QtG/De60okV1PCT6H8comx2u34w4G1bmNTWvPUKD//o95b52Tfl1BYv0JtGZFZKrNpqxtc+pOblWkepeavVgKhKT2zeq+4zXqvJiZry88usb/eg5SvasWbB9s8KV5M1raVpziLzr+kyr6oPSLdtpVS1BBNZSMXNs655h9Z/8EY1/7yq1H/TQcqOh3oWJeR2x9hYNffe8yqIBMyZa2HkEpkLe8bbnKT8yVpcCxU5K8eJRda56uAae9hn5dw+X771xYDxj5goo/U/6uLRhQonuOu4GbM6d0tqkggd3PuBYha2srWll/7EAY5AzVlVvSLSp/5lfVPo9Z0+vYEGraukhsJaY6VXgbWvi+7do25M/ooagpbwKfLZ+q8Dblkxjqkf5n9y622nssVc9SlNTA2acpPZdSbYLMFwiKYhry3HvlfoqW5q7dNNr5X2VKYsn//3nKt7Wp3i9trA3QZTp71f7Z14cfrjbsayPnauGjp66jbHZcVq7ZFnHQQ9R+ltXaORJX5a/bdKZSgj2D4G1FM1cBX4oG844m/zcRWozF7efaqh5IReusdfapOE/XiE//8Bp7OHY1ZufXR67qvXSPna1ioaYIrmoxv7lW/Iqexo5WaDNeM2Tb/ilglv6w1Xvg2ztJzzYZ/bXmErPwc27bbn4dw3Lz9h/1Xijx3Cr+oJSq9eaczunraYnofDDW6fX/3Nu5Q3MCYG1hM2ccVb6ze3aftwHFZiCpemgQ8vrwM13bdg+T8Z00fR0K5nvUP7TV+zy5crzPesIZaeGat+FFJTHrDq6HqKRZ36jfFOyq2G1GxNv/IVy/9yuSHuy9l2+pmKRGe9Vw1tOqnxil3PHnEtD7/+1UqsOLjcG5/u+wOqq6qZbt33dQzX0rl9p8sU/lT+WW3QTZlA7BNYyMD0Gkilq6rW/Uf/rvq/2tQ8LL37N16rbxfKU9faDH6rxz/xJ/ad8ItytdneD9E2vPVmFycnatq5sAWdaHi1rH6TN//JB+dlFPLniAGRe9Wu1lFaXj2WNu+NKk3k1P+VRKrXYdR4fOJYVXLZB/ad+XolCsxpWdCsIV2HRgavMdrWtqsjdaW177OnSxfezqvoyRGAtFzPv77lxm7Y9/v3y/zam1JqDygXd/taIS+V7mmKdLUpmm7XtpA8p+PXteyxMigc1K3HIClNbrnG3pHlNqYMOUu8rvy6vP70kw6q8Qoa09VkfU3Ll6vAm7ZoyLeKpkV7F/vWRD/jSdKVocEojz/qaRt//R7UcfFS4zNN+LzFVWYXETt5pbOtR/8u+ZVqVvwwXhKZVtTwRWMvMdMFiCrfJt52p3md8ScmWFeFWC+FKGbOdlBGUQ8FPJtS85gilTz9fQ8/7mvzx/F4Lk/irH63s5KA582p46pnfLdKWUvoPN4fbRgRLMays6jjlREGDr/mhmkzlI7xpvIZK2axaXvGkcM+s3b0eKzzef7o33F8qti1QQ3d3ZduVOaRWeANwyYy7HqnMOX/X0PGfVeTOYaaqL3ME1nI0o2CJbktr6Amf1dRP/6LWdUeUW0z7Gg8plW/STNobWW8dUO9jP6zihffuszApxX11PP9JKgyna1cxDnv+SkoFncp85IIHrF241EyvL3nzdqUv/7uiranajmfZH93sq7gqqb29pnIXdElj/36Gxt55plI96xRpTpRb1nvLrcpU9Xhnq9qaDtb2Z3xW+Y9ftvMqJFi2CKxlbKdV4L9+vXr/5dNK+T2mRryiPClj19ZWuKRRSX5DQi09h2roP36g9Ft/Pz3zbp+FydE9yhVGazrZwhaILWsOV99/fK3cI6mlr3rc0/97luKNbTt2N64FM1Y2NTiglrc+Wft4UeFf4djWFRvV/9iPq3j1NiVXr56eDLOT6qSKSMS0qh6ssc9dpL4nf1zetgm6/zCNwMKOKfD9GQ0+/fMaetdv1HHII8NV4FUdfwhXiQiUWnuIvMs3q++4j8r7e/+ctmhoev1Jyg4O1a47x7YYTVfg6LnXyqtsH7F8uo7M+2Den+G3/VwNK7pquyxXoajocYeZbsF9P0e1tWUXPs68+xwNvuDbakx1KNbSErbSqyvV26XEEis7lZiIafuJH5Z+c8f0qup0/6GKHYcR2mnR1Us3aOvx71PrV1+m6GPMYH7OTif25G3Nqe+pZiyhLzPd+pptF00p6qnpMQ/T2Pb7alcA2ZuVm1dq/MPfk7fEuwIfqNI1ePUmJUYblCkVTWuldpd3rKVZxZWpsEt53y+tfHdUeG6ZisTwE7+k+JufoObXPEnFYnjzluJBSv3v+rGCS+4v16KX3fuH2SCwsJPp8YeposZf91MVkhFFDutQccuIosP58nbw+1GYlFanlPXGazeV3W530ZLSyHcvkJ9bvHuD1VL1Pdn2mq+r449vUHZbX212pDbPMzXep8TzHqbit/4yh28LY8u0nKTcV69S/3evVXBwS7hxpr9hPNwkk00VsTd0CeKBZhQW0XQx7PqzYbW7r89W7F8epMLohGolqLSuct+5ofyJ5Vrg2eDeOK5Ib36nTRfn/WlyBcVOOVxz5+10X6Cd+Re5f2x6R2daVdgbAgt1kXr6I804RU41Ycq6aHuThn7wp3ApqFlPzV+KKgX+0Pt+pYae7prdTGzHn5of9BAV4/sZMAQT9gOBhZorRAPFDluloFCbe4RsN1JjslOFn91a/gSFoYKbt8uz9YNaXeGmazfnjaq0qklAvRBYqDn/0A5T0c+qVtOS/VhEU3/fIH8wK5TZCXzjP7tKXmNCtVKYmFTsCYcIqBcCCzVXaI+ZEtSvTV7Z7sBkSmM/vErYWe63f1NjU2ftugWDkiKPWCmgXggs1FzrS49TdmhQtREokWxXcPVGYQY7+aJ3St5ksWY3EhcnMmo74VEKfLpgUR8EFmrOW9tSuzUKfF/Z3j5Fp5bnVPY9CmfiSUNnXqFYW0q14EV8leJFFYPa78cFWAQWaqpkys3oqpaaTdzzTWBNXX6nsHvFazfKi9bodku7AXKsKH8lEy9QHwQWaspriinW3FGzcZRYe6umzv27sHulW7cpnmhVTZTvA1bQ1SigHggs1FQxaku1Ys3WLY1FTO3+/hFh9yJFT95UULMKg+dFVIgIqAsCCzW13zeWzoYphEulnCLZZXyj8D7YBXGnNq+XF69NquTzaTU8co2AeiCwUFMFuwhrjZastNuUZDb3ysvUdvdi16Wvu09erDbvQXFwTI1HP0hAPRBYqKnk4w5WZqpfNTOeY/25ffAn57CT9Bx58aiCJDM0UR8EFmoqurJVxam8aibN6hb7EozYLTxqF+pegk0fUB8EFmrLbtIXqV1hWRqvYRguEX7Jq9k6jqEogYX6ILBQW8lYbTc2L9IdtS+TN9yrxs4e1UzAe4D6ILBQc7Wdw8cMwX0pcYiwRBBYqK2p2s7gY/xk35pPPFxTg32qGY9iBPXBmYbaq2EV3zNdjti7sMMuWsNLPc9tBagPAgs1VeqbkJ+oYaikarff01LhtTfWbhzRLqIxWaOdpIFdEFioqYkb71djsku1YG8tiqxpUcBtWHsVtMRrtgtzUCrJn2TSBeqDwEJNxRQ1lfAaTak2XY2J5i4FKboF96bh0YcoyNfmPUh0dWrkwlsE1AOBhZry87b2XaMmkP2xXqBChGlwe1KMml7Tgw9XkKvROJNtuY1x8zbqg8BCTYUL09pJFzXKlKnJASWecIiwe0FzXPnYpLnSa1RpsN2yk2zgiPogsFBbU3ll+vvk1Wi1i1I2r+gTDxN2L/Lo1SpOTtWmwmB/ph/IG84IqAcCCzXlmf+C/nTNWlg2sFpPfIwCn5kXu9P4/KNVyE7VplfW/Ew/F1Gpd0JAPRBYqLlg00jN1qPwTFAVUjkVOuLCDEGgkhnfazjmMAXZ2qy3aNcn9MZLinLjMOqEMw01N3rmjUp0dqhW8mPjSrzgYcIMnqfimib54X1qtWl9RloaNX79bayOhbohsFBzsaFcebmFGhVshYm0Wv/9yeH9WEFA6Vk9Bg2verQy40M1m3DhexHlbtwsoF4ILNRcsHFUfilau00ETWsiaJaK65rZzFHl41GKeup40akqTUypVhJNHcpfeo+AeiGwUHN+0XTb3b9FXiyimjAtiEx/v9o/+Jzww+Xcyqr+7qUT1iibs62rGl3ipcC8r1FFp2jRon4ILNTFxO9vUSRew4kRxZLijzpYQU9yWbey7G9uI6Tn4y9RbmCodhsNm2Ocvus++TmWZUL9EFioi9JVGxVrbq3dAH3E10TvFrV+4gXhh8uxlRXYg2vD+tRDVIgXarZ+oBXvbNXo964QUE8EFurC2zqhYDKvWm4/7BUDRR99kIIVy7OV5dkFRcyv3fHJlyg7MFi71S1Md2As1irv1l4B9URgoS5sYTpxwS21G8eyor6m+rep5RsvK3+8jFpZYYvShHTDm09ULjsiz6/dpR2YwCoNjCoyyBqCqC8CC3WT+elNSratrOmGjkG+JO+glLynHhYW4MEyuUnItiiLLTE1v/ZUFcfTNV07MNae0tivrxZQbwQW6iayflylqWy4h1LNRD1leofU/pmXqNQQCZeGWvIqLcnOn73BjONtqN3MQJX3v0okO5U/6w4B9UZgoW5st2D6Dzcq0tSoWvIjvjLDfWr56SvKn1jCXYPVrkD/tY9SsceEc6FU03FCPx5V5s6N8renBdQbgYW6mvzmVWpsXRFOQ68Z0x1WHM/KX9esxnc9pdw1uARDy/5OtivQf9Qqtb35acr2DobjeDVjJ1s0tWjie1cJWAgEFuoqOlFU4b7+mq+u7iUiyvUNKvWy46Xj1pRXw1hCoVUNq5IZt2r7wSuU3rrZtH5qu/OyeUZFGhpUuvg+AQuBwELdDb3vN0r1rDatrBoHiOm+Gtt4r7q+9VqVDm9bMqFVDasg5mvlxe9Vevu28iSLWtYBzHNGGqOa/NX1ipS8ZTUDE4sHgYW6soVt5I4hFYcmVI/5EH4iFobWyt++Q8ER7c6H1nRYRT11X3KaxgbXl2dd1rjFGpgu3GTbGmW+XpkdyJqNWAAEFuqqekPvxDcvUbS1qfZbU9hNBuMRjWy6Uz1nvn06tFxsIUyHVUNE3Ze+WxPpreWxwEjtL+NIKqGxC26UP1abvbWA2SCwsCAKZ92hxkR3uAlgzdmJCdGIRjfeqa4z3yT/5IPLLQSXQqs6ZtUWV89VH9DE5NbyjMBoHS5h03Ubb2pX5kfXC1hIBBYWgCl884GGfnGRaWWl6rMBoOkys1Oyxzfer/Yv/5sa3nnqdLfWYu4iDG98rkxdjz7xMK287H0a77vHdAPWKaxUPj7+cF7+7YMCFhKBhQVQDor8D25SQ3NXOD5Sr6f1E1FNbtqo2IseorY/vEGlxugi7iIMyjc+27A67SS1fOnFGt10V3m8KlKnS9eMjzX2rNDA+38jYKERWFgQYa19KKPsFf+UF6vzaWhCKz84qkwqq55r3yP/6YcvqtbWjtdgugDXpNR22f8o+YJHaWLjpvJajHWc8GBXtojkfXnXb2E3Zyw4AgsLojr5YvRT5yvVvaZ+rawq251mxoDGN92npg8/S22//S8VzfjQjlXeF65wru4YnPrMc9V9ztuVzY0pNzgkvyFW39l5JqASXR0a+OCvw5YeuzljoRFYWDDhFPetaU39bX04vlR3pmvNM8+bGxw2ra1Jrbjs3Yp/8ZkqNtvX4lVfZF1bFqWY6f570+O14sYPqPS4bk1u2VBeezFa/0vVViLikRYFF6+ndYVFgcDCgpluZb3nD2ro6KrpKu57FY4HeZrYcr+ij1mrlVe+X/HPPU2FQ5sVePVpWZRWJBV5+/Faef2H1PBvj9bYlnsVZPKS7S5diJaNeSvsmo9jv7pcfkm0rrAoLEC1FpjB1NxjW9Lyhorl+4wWanV1+7SmFVOazGp89B5FH3+wuk55uGITUQ3+4E/K/uEfio4VwgV854PdaLGYjMo7fo1a3niyEkesU3ZiUKPb7pZnAtSL1nDfsNm8PtOqS7auVN/XfkCtFosGgYWFVam5D7/vV2r6youUHxqu+aoNe3895k8solI6q8xkRhk7S+71x6vz7S8wgdKv4s1bNfrbv8jfMKZg67i8XKk8vrOHH2fzLfAqK1GsbFapK6HmFz1WkcevVbJnnaayvcqPT4ZrAYZdlAscVKq86GhLo0Z+f6X8qeL0tHpgoRFYWBRKN2xRvNCgnKnZe/4iKLQtW0hH7MrvUxofv6+86vuDmtXx+RcporhKEVOYD+Uk83VlPGU2bdb4zfeF+1ElH7RSTUceoVLStBqbEuZP3FxtMQV+Udn+ARW9vMa23VN+DpsFkUUUCCakE00dGv3sFeUCgrDCIkFgYVGwjZDBT/1eLac/I5wEsaCtrF150/9nwtQrv76Z7PZe8ZL8x65R10mHh62qYj6nqXHT1RmJ2A/MQJ3Kza3qXI46rP+3X+xrjHrKX79e0XSJ1hUWFbqnsWgE59xlalAJN2ekmXGnIJtXbnRcefPHdimGYTWTA+V+uMht90qNfvr88icIKywiBBYWjXBH4jPN+FBjfCFvg1rebBfovcPy7xsVsNgQWFhUMl+5Qk2tq01Nvw6L4mJnxUCpFas1/IHfCliMCCwsGmFXYKaoiXNNK6uBVla92YV2S4OTLHKLRYvAwqJRvTl1/POXKNW5AMs1LWemspDsWaHB035d/YSAxYbAwqJiW1nRkZxGL7hBfiou1EdQKMnPR+Tf0leZ9MJkCyw+BBYWlWorK/vVq9XYsqK8oy5qy6420taskW/+SV4pYBkmLFoEFhYfu/XI5gmVNgwoWIz3Ki0x9p6wRGOH8j//q4DFjMDC4lNdrundZ6qxq4dWVi2ZQxtrbdHQ9/4kvxAs0o0sgTICC4uWd9eQvJFSeZt41IRd5zCealbhezeVP0F3IBYxAguLl12u6T0/V+OKleE9QphndnWoaETpC/6mSF60rrDoEVhYtMLtRv6yXcqUwu04ML/CZZi6Viv9+UvKn6B1hUWOwMKiZWer2SJ08ruXK9qUXLgNHpciu6ZtPKLsX+6X3zclwAUEFha93E9vUWNDd3mreMwPcyxT3Ws0+tGzBbiCwMKi5xVKGvnZpaaV1cgCDPMl4it75xZFNo4LcAWBBSdkv3mNGlpWslzTfCjZZZhWa+R9vxfgEgILi56dfBHJljT084sVaWkUDkwY+uM5Re8ZdXPvMSxbBBYWvepSQYXv36Rk80puJD4QdlWLzg4NfeR34YcswwSXEFhwQtjKGsoqe/NdUpTTdr+VSmb4qkGli++ndQXncOXDCdWWwOgHz1Vj1ypaWfvDtK7inZ0a+sxZ8gNaV3APgQWn+JvGVdw8Yv5BYTtnJqAiibiC390hwEUEFpwz/PZfKNWzhuWa5sKugN8Y0/ivrjetK49lmOAkAgtOCcey7h1RfniMPQbnwM4MTLWuVu5r15Q/QXcgHERgwSnlcRdPk5+/QNH2FpZrmg1ziCLJhMb/fKv8iQKtKziLwIKTiuffowa1cCPxbJRKSrav0eSnLih/TOsKjiKw4CbTSBj6xrmKtTezXNM+ePGoJq//hyKDWQEuI7DgrOLP/qpYrFnYC9MCTbR1Kv2VywW4jsCCk8K9soqBJn5+lbxElFbWntjjNJCV948BbhSG8wgsOKl602vuhzepsX0FNxLvjl2GqadHg+/9dfghNwrDdQQWnBW2skayylz0V3kNMeGBvPGCvJt7aV1hSSCw4Kxqi2H8Mxcr2blaQYFW1rTALnLbroH3/ia8XY3WFZYCAgtuszcS900pc+t98hMRoSyw6waqRf4N2wQsFQQW3FZdFPddvysvisuNxGGIR1tSGvrhn+SXxI3CWDIILCwJ0b6M1DtF2WzYrtHGplXKf/fG8ifoDsQSQWBhyRh6zy/V0NO5vFtZtnXVltLoLy+Rnw9oXWFJIbCwJISz4G7ermg2tryXazK/e7JppTJfvbr8Ma0rLCEEFpaE6iy4gY/+VonujuXZyjK/sp9KaPT8axWZLAhYaggsLC0X3CsvF1meW4+USmpo61bmm9cJWIoILCwpnmlljH3/EkWSjctvuSbfU+GuPvkbx7hRGEsSgYUlJ/jF39XY1KWgtHzGssKZgStWafg9vw0/5kZhLEUEFpYW27LIFjX6m6sVSTUsm1aWF/VV2DikyL2jtK6wZBFYWFoqLYvM165SsnWNaXkUteSZfGro7tLwO1nkFksbgYWlxy7XNF7Q+IU3mlZWQkudncYfmYoqcs+ogKWMwMLSU2lhTHzsT2psXykVlnAXmV0zsK1VQ5/7YzjhBFjKCCwsWbGxgop39ipYwmd5ye4onOhQ8Q//FLDUEVhY0obfe6aSPauk4hJsftgtRNpN6+o758gPxDJMWPIILCxZ4QaP944oGJpakoV5uIVIqk35H9xcnhnIZAsscQQWlqzqbLmh036phhU94UoQS4bNp3hUmfNuU6TAzEAsDwQWljz/5j4VR00ry19Cp7sJ36autRr/wkUClgsCC8vC2BcuVLSlecncSOzFfKWvvF3+QEbAckFgYVnw/nSvEl6TGetxv1vQLsOU7Datq4+fL2A5IbCwPBQDDX/vQsVamtzeesRuIdIY0+TNdymyPc0yTFhWCCwsG4Uf36qG5ArHl2sKlGjpVPoTfw4/YrIFlhMCC8uDaYn4uZIGzjhP0XaHx7JM69Abycq/Z0TAckNgYXmotERKP/2rGpo6w63knWO6NRMdXRr64O8ELEcEFpYP28oayih33b1SLOJcK6tUKilaSkjXbBawHBFYWD4qrazRD52lZPcat24kNl2BjV3dGvjkbyuL3DLZAssPgYVlxc6q87enlb97mzzfnQkLdhmmaCSu4Jy7KjMDmWyB5YfAwrJSnVU38n+/UUPPSjemuNv9vZoSmvjN9fIDj6jCskVgYdmxLZTIhnFpKGtaLg50CxZLSrWu0dTXryp/zFR2LFMEFpadaitr9NPnKNbRurhbWfZG4WRCY3+8Vv5kQcByRmBh2SpddK8aCqlFvVpEUCoq2b5a6S9eJmC5I7CwfJmcGvjCWYp3tC3aVlYk1aDRi25QZCTHMkxY9ggsLGvBWf9Uwm9VsAhvJA6KgRpaVijzhSvDj1mGCcsdgYXly+5IXJT6vvBbxbvbFt2tTZ65Ogvr+xTZyiK3gEVgYfmqtljOulsNiY5F1cqyr6Wxe6VG3ldehonWFUBgYbmzNxKnC5o89y/hth2LppVlXldgxq382wcFoIzAwvJWabmMf+4SpTrWLo5Fcc3YVXLlag2+71eVT9AdCFgEFpa98Ebi4awmr7ldXjyqhRaOV2Xy8q/byjJMwAwEFpa96vjQ+OnnhONGCzrF3QRUrLVJ4z++SnYRJsaugB0ILEDlVk10MBPOylvQGXl2KntDl3Lfv5GZgcAuCCxAM1pZHz5Xie7OhWllmaeMtCQ18pOL5RcCWlfALggsoMrOzLtlu/wxLcw8B/P8ieYOZb9znQA8EIEFVFVaNIMfOlOJnq66b/DoRX2lz7pRkalSGF4AdkZgAbvwr9qsYKJg+ufqd3nYG4Ubulcq/c1ryp+gOxB4AAIL2IXdgn7y+5fLb2ioz1iW3UIkFlX+1k3yt00y2QLYAwIL2I3Cr/6mVLK7Lhs82udo7F6l0dP/GH7MZAtg9wgsYFd2UdxcSWM/v1yRpmTNJ2B4vq/i/f2KbJoQgD0jsIBdVVo4U9+6VsnW1VKxqJop2WWYVmngHb8UgL0jsIDdCCqL4o7+7spwi/paKZnuQH+spNj94wKwdwQWsBvVcaTMl69Qqn2dGdSqwViWaV01tLdr4PN/FIB9I7CAPQgXxR3NK/v3+xXUYh6EaV3FvCYFZ93JzEBgFggsYA+qrayx9/1eyRUr53frEbt2YVurhr5+bjiNnpmBwL4RWMDe2JbPhjEVt47K8+c3VGLJJhV++VcBmB0CC9ibSstn+N2/VUP3qvlpZdkbhRtiGvvJFYoUxDJMwCwRWMAsRP4xqPzAsLxYRAcqvFG4baXyZ9xc/gTdgcCsEFjALE186RJFmlIHtlxT2LqKa/Liv8ofztK6AuaAwAJm64J71aC2cKHa/RUUikp1rNHkJy8sf4LWFTBrBBYwW6ZlNfTNcxVrb9m/5ZrsbEAzdjV18z2KDGQFYG4ILGAOir+8LdzCfr+WazLdf6mu1Rp59+8EYO4ILGAOvJxpZX3/T4o0z31R3KAYKBicVKwvIwBzR2ABc5T74Y1Ktayd2xR3053Y2NOjgXf/SgD2D4EFzIFdQimaLil96S0KYnO4fEoleWlzwf1lG8swAfuJwALmYHq5po+fr1T36tnNGDStq3hnpwY/9fudfgaAuSGwgDkKtx4ZyCjzjw3y47O4kdj35GVK4bR4WlfA/iOwgDmqtpDG332Wkl1r9j6WZfIpkmzU2Pcvlx+Y4BKA/UVgAfvDbj2yeUKFzYPy4tHdr35hPhVk82ppPlTF395e/hzdgcB+I7CA/VFdFPfff6DmrsPKSywVZ4SWCbAgX1DzwQ/S1td/Kdy9mGWYgANDYAH7KRzLGsmp96mfUFPjGjWtOkjRllS4Entq5UFqWX2k+t/wXXk3VGYG0roCDkhUAPaLHcuyQeT1TWnglE8pvzal2HHrFGlv1sglv1Rsw6S8QlB+DGEFHDACCzgAM4MotnlSOvOfsos2xffwGAD7jy5BAIATCCwAgBMILACAEwgsAIATCCwAgBMILACAEwgsAIATCCwAgBMILACAEwgsAIATCCwAgBMILACAEwgsAIATCCwAgBMILACAEwgsAIATCCwAgBMILACAEwgsAIATCCwAgBMILACAEwgsAIATCCwAgBMILACAEwgsAIATCCwAgBMILACAEwgsAIATCCwAgBMILACAEwgsAIATCCwAgBMILAA1FwTBrD4H7E1UAFBDgfnP8zyVGnwlXvkYFeNS9sy/KbZtKgwt+zVgNmhhAagpz/xXivtac8WnFPu3Y9T44kfq0PM/pdLDuggrzAmBBaDmike0KRMZUCmdUTGd18D2m5V6/RMEzAVdggBqLsgVTFOrZKrI5RaVF42oODIhYC5oYc0zBpKB3djddcG1gjlaFC2soCGi5Befo2wuY/oOHDyJI57iTSml33Wu/MGMAADzb1EEVtNZr1QpIjVETYPPxUFYU1MMiiWtuvAD2v7498krUHMEgPm2KAKrKNO3nS0pKDg8Y6gUKJ3dKv/oVQpu2ioAwPxaFGNY0eZGBaWSu33a5mXbFlYi2aniphEBAObfomhhTZx+vno+9zrlS+Oab+ktW+TFIvZmkFApnVPDmi7Foi2mXVfQfIn5zRo540L5fWkBAObf4pjWftF6bXv86SqUivKCeewWNO3HtvP+0/TWFcIuOyt58GoNPv2bKvabcIzMVwMzkB+JKJoNuHMfAGpk0dyHFTGFfWSeeyhLQck0rHb+mZEgLn84Y/42ra55a2CZgKpMtCCsAKA2lt19WCW7splPqACAa7hxGADgBAILAOAEAgsA4AQCCwDgBAILAOAEAgsA4AQCCwDgBAILAOAEdhyugXB5JvsPz1Mp4Ye7rPpTRR2IcGNI83OCeKWO4fvmZxZ2PN88rrAx/Vwxv7wG4z7WJLbPHWQK4UNrttKHfU32eezrao3JH85pMdjpvW5LSKMZ+XZ5scrrrcXzybwv4c3v9lQIVFk0ei/PZb4ULnmWLbASy27YYxqe63M9pnbvvnxpQY6pecXmPVX5mkhEzPmg+Slj7K+SiIY/fz7KrflGYNVAWICbv5PfeJFSJzwsvAZyN2/SyGt+sMfvCU/AGRdIKWoKwDVNij1mjZL/8ggVkuY8Onyl4olWBV5Rnh9ToW9EQ8/5mvxcSfsrLFtXpZRvi6nlRY+Rv7ZFpcaoGg7rUSzeZi6EovaVWF4QU3pgq0oDE4oM5zVy5vXy7hySvz1tfvfy73RgoVop/E89VD2ffLn8eIOyd2zUyMu+o4VWDauO779W0UcfqmxuQOlvXKn8D2/ar9+5fB5M/2QFqZiKhzSr+SWPUbCySf6KlJKr15n3bcd28+E6md7eX6UXRDTVv1XF3nFFtmc0+seb5N1t3qOBzPS3LtV1MGdWKqxiKqLioa1KPfcRij54hQJzvjcesk4Rzw8L/vLpvs9amt0XSekNGxVMmMrTpjGN/e4mRe4ZVWQ8X31ilTNl/o9pWFaY/zV/5SVqOOmo8DrO3HSvxl/3s3KQzUJgyxhz7cdOPlSJxx+hoDMuv6dJyfbV5ueZyo1vgmt4Sv3P+Lz87OLYSYPAqhHvGYer4TGHaWLLfeHJHX9Ep7ynHqbgwvse+OBKQRFW7I5oU+INx6nlSceYk8ZTrjiq/PCE/GhEuclx5cZHyxeLKaS8xpiaP/N8Tb7td7N6TTMLJHuixl/7GLU963gV48Ww8MsM9tlXHgZsdnJC2fGx2bUS7M+NmGhamVShq6iuz78kXAxYE4FGz7xShZ/eVt6Jeb9bHebYHLtCPZ9/hcY23xv+DvFD2xV5+SNV/NlftVCqx9N/2cOVf2iD0lvuDI9j61ufrd47tihy/fb9+nmho1eo7f3Pk3dEa3jYMoP90+fIxOCWfQTUbn+4vKh5j9Y2qbCiUR1Peaki9j0ayGrkh5eq8Ku/KVKoXctwwVSvLfs7nbRWTf/1RCUeYgrkoq/MWL+CQjH8+tTQ3N6r6Z/dFpdnWvxam1LPM19trgOpcP+oJs64XKVz7pJnKxM1Oqal49coevw6jW9bb1+M4g/vVvSFD1PxzH/s5tHlFqP9/3x3Qu3ve7oaTniwAnPdZrNDKoyZngFzfgQqaWJgw3QZE2lqUPDSh0s/+psWAwKrRgqmmlOQKaSj5S68ggkb7+C2nept0wWUvaAe0qmOr75Cao8qOzGsib4t5uQvfy284IqVVlT1xLe1a9MlUUjMssleea5Sa1zt336FIkd1KzM+qPGhHc9TeeCO75ntRWZfX7gafvk5soOD5dql+Vzji45V6tXP1tCPz1fhC9fs/HvPQfShPZoc2WYK3fJWMbnRUaVed7JGf/7XWdco51u5tzRQ8xuepOzoWPm9Duw6yJPKN3iKzOWHVY5JsT2h7p++QcUVUWX6+qW+bLWsKXfTVJ94zi92xntkzp3cjPeo6U0nK/F/z9PAB34tnXVX+eXs0uJ3UjUoDmvXip+8RVPREVMwjym9bfuO1qlmHNe5mnldGpmBvnJrN+mp+d1PV+T9z9LQm38h74Zt088zn8c0sqZF+Sm760TYGW+eOq9cPNjpvJvZugyObFfnl18pb1VSkwPbNGFa3DvKGO2+jFF5g905ncs1xKSLWinu3E1nT4wgnZ/+uFpo22Z56tsvVvfP3qi06U6a6u1VaSof1oZ3CozqNeWVuwJsQRNLplTcMIsNIysXbvRpR6r78v9TrrOg9NbNKqWzD3ye3TzXvv/s5iK0F4GpvRUn0xrd+E8l//Ux6rry/aars9JlOsfNOgvn3aXGti5TIFSOq21hNscUHLdaC8ZWAB6/WpGW5PT2Nfai9013bezO0dn/nGrBeuphWnvph5X2R5S1YeVXLs+Zh7c6tLI/f4IHvn77HuVHxzW+Zb1a3vtMtf/yDZWnXBphFX/N49X12//RyOC9yg+NlEN7d4tfz/l47uH4VH52bmRY6f4+dX7rVWr++ksrTzG/xzQw5cQDtkgq7niTp8sY85jU51+otl+8RpPBkCa3bjIXVGmfZUz1c7Fg8cQELaxa2Ut5XD2RSh0NWvmn92kivdEUGBvKG01Wv9krd6bHOloUjzaHOzIXS1mVxso17khDQoV/9Cr36cv3WuuY7rYy4z8tn3yhJjbZ5/GnW37ThaX5326fy05yyO9ljMz+bPOjIh1NpqXjmzzJK9M/oOkDYAtFM4ibGxo2rY4J9VzzXvWd+En5ec1a+DsMZzV1teliOarJhEK50Mn0Daj93c/R6PO+Xf+urMrzdX7qxUr3bi8XHPZT8YiyN6w340Sz28iz+v54/3KYOj/7cg1u/JsZo4uUwyooV0xsqPim+7ehuTsM7GJuylQE8tMhua/X6Zmf5TVGFG1MmX+b15exXUDpHd9vjqX9vG11eT0xdZz1Vg0978va34bHgquG1X8ep+TrT9T45nvKxzRsRuw45tG2lBINbeaQmmM6NalS3vRW5Gd/TH3TWxGJNIQt1nxu0hy/kR1jVhEbTxHTTbxRsWO71PSD/9DEa35St/N0OqzaElp13vs1ml2v7PZecy7ZMqZaezHnRVBSvNt0r0fKla5ifspUZPPh+Jw9L2K9gcZ//vdFU30hsBZAGFbdjVrx5/dqbOtd5ULdzvyytfPGuOJtbYqY3sT0Nf/U6NmXKP/PXsWLkXAANLA1o0otzs5GC2NnLxdB2M3UFFWnGVea3LJpx+7LtrAyF2q0vUXRWKMyV92l0d9fooJ5rpgZoA+GKs81s7a1O2EBYB6XiqvUHA8nirS88gQ1n3y0MtlB01IYKRcWptANMnmlvV71XPQeDTzxE5rL8bLGP3i2ui96m+nS2VYuZM1/sYN7VFidVHRrnXd6tsf10SvMqHfc9AVVmj3m/UutPFj9r/zSrLougkoXqj0XVn/29RraYMIqES0fb9tCN19r6DYhNZLR2A+u1sh5dyhW8MPzIPz6bLfJCcqTayLNCWXNy00cd7AanvtwJR/3EGVG+1Ucz5Rr23YMw9Tac515JT79LGXfda5zEzGmC+oHdajlTU/T+CYz5hkvF3OBCSQ7FpxcuVb5Db0a/fRFKly9XtG8Fx7T6kSGWbF1ONM74rU1KB8J5D/cjDn+55PM+Ng607LaopKdkWmvNfPc+cFhxR/apfjbTlLuS1fW5ZiGP787qZ4/n6bhzXeGlZ7wGiyWW1bJntWmJyer7PX3aPBjF6t0z6CidgxzT2XMIkFg1VPlJLDjSCtNWI1uuat8cZkLKdqaVGPrGo2dfbWGvvdr+RvHw7EZe7IkKt9e7ov2d9u1szfNX36RpkYHyq0AW8k0A81+Ima62FZr5AO/VfFP94SDw/a54rs+l7WvSqcdaU6bn5k2BWnvlDI3/1HpyB/lP/8o9Zz+7+VQtszz29pbrnNc0Tc8RoVv3zjrGqe9yCMDWRXuG1TQUBkLMLXYycHNanrPU5V5yx/q18qqtq4+Zo6r6fbxKl13tiDI/nOz/K0TsyqUql1Enb95g0a232Hek3JlwgZ7tMu0dnNJDb/iR9LtA+HjHvDezKUFZB87liufS+fcrYz5M9nwRzX+7xOVfOGjld68zVQsomFo5U1LoeWpj1XvGdfJv2NQLgnbDubCWfET0w248e7y76RyWMXamuQPlzTwrK+E79HM8316dGS2xzSsVJg/g5nyz7hkoyYu+bHG2uNq/vBz1XjyEZrYsKlcATGvITswqOZXnqj+X94Uzp6tmUiljElGtepC07LadHu5MmIrqOZ1NK1Yrdxf7lXfq80x2JY2gbSbEJjruVVHjGHVizkJioOT4T9XnXe6KcTvLvdQFApqXneYirdsV9/xH1Xu9D8rsmF83iYSFEzrKvnoo1SayFS6RGx/oukeSjVq6JQvqHTe3eWZTPPMszsw//ZObT/142pedajK1XyFtdJM35C6/+vF5XvUZhkw1cJ/7BPnKtHVMd2dZWuyTSc9UkVTUNStS9C2io7qMN1nSfM+VcauTK20ccUajZz2251e774EJ6xVqbE8gaY8iG+6gbtalb1uvYae/IXpsKqFSKak3Mcv1fjbz1TTuoPNsSz303qmMjO+7T61f/EllRfpUN+gPe7/78HKaFh+pTehHFbN8m8b1dhzvhOGVU2Y42TvD5z8nzPV//ofKXmwnY1YnhRlW1vp/u1q/sKLKg+twTVnf+54Nvx3629fpbHhe8MAs12dttsvujWrgad8XuOv/2XYI+E72OVLYNWJLQwiZkzIe9nDNV7cGHbH2XO2+aDD1f+67yrztrNrcpOef8ohypquOUXK42O2SyC5YoXGn/ND08eWq1lhVJ1YYaez9576GTWtPiRs2YWvydT0xtNmLO0ZD9Kc2FltN21TJBudft22q2NiyLSy3vKk8kPqVDVs//xLNVUduzJsTTp7x2ZFTWVjLoVRx7ueq8zQQBjk1RtWE+mUCv/7p3Io1zgs7GstXr5ew//3CzWs6t4xWci+dytaVTqirb5jgwfIdn12veN5ypgWTdijYXspkqZduWlcY2/6ReW9qdExrRynsDfghm2a+MolSnS2Tx9Te+01PvRgFe1U+JrcVF5SacOo9GxzXZnu38BUUu1raT/oIZr40PmaeOXP5dnbSxxGYNVJkDPjAv/2KKXefKJKo+lwgmvLikPV/+TPyLtpe01qXFbqqQ8LZ4FV++ajLY0a//W10kC65l1o06E1lNH4ty4K7+moznLLD4+r803PDAuYOfzAsOU58J5fKmZqjNPlzlROqec9PrzhuR6z22zryl/VtOP5TbA0dHVp5H/PrLzM2b2Gkim4gkOSOx5vfk7zmoPV97KvlX9O+YeplqrvUXDR/dJ9Eztmndn7c8z4Vvw/HiWXlFanzEkflV/5PWwLp6ljrUZf+4vw4/Kxrs8xLfzgJnmjhR3vob3fa7Jfkec+RLWQH5lUy1tPUvKdJ5trfkyBadW1rDlc25/6ibAnJQjqU5mrJQKrXuy5cni7CuNTKplun+a1R6jvGZ+VN5Sdvgdn/p/T1J47YpWZQeWPE00dmvrJzeWP61Bzrv5eUz+4Xg2tPaqW8rZlVOqKKGhPaK78a7eq0e8IZzOGzO+XLY5Ipx6iemh73/M0NdC785TiLRnFtqbn1MIrPtj8DoVKgqsyBrbRtCAHKrXgOrVsqu/R4Lt/rcburukgLk5m1PoUUxFwp4Gl2LOO0tRw3/R4caS5UcMXXqtIur5LDFWP6cQ3LjXj003TFbXixJRaXvpY1UL4jHalmkxBJdOb0WK64ntP+ZS8vnTtypg6I7DqpVrjyxbVesiD1PfvX5XXP1XbVo6d2tvVWe5HN7V325cfKTQoumWybl1nln0uu3xU+rp/lAeAw9emcNpvvnPugWXXcBs+4087tdhyZlys5/SXzq3Fth8KzVFFH7miMotP4XGNt7dr6NN/KL+2OdTeW178OGWHBqcr/H4qoYkfXq2FErUTfXKR6fMxvI8ulVPQHJMrGk96UNg1FrLDtbFG5c5cuFUacuf8U7HG1I5PmPMlsXKNSg01uBW3OmvUhFXD2pUaPu3nZkwtW7/JSHVAYNVTYAfUWzR20V/k/32gsthkbU+k0Vf+RE1N6xRvazfdTWa87I3fCbvV6nljaPW5MhfdqUiycfrz2fEh02W5f90jmR/eqFTLmulxMduKzHnj8k9cp1qodqekPvFMZcYGp2/qLZngiptKgK7cpDlb07zT29+Q6lLusnu1UOzyhKOX3lSerRh+wiu3AA9tkwtK5mU3Hn6oqRSWF4W2p120sUHB3/u0UCLm9Ay2Te3oDbD3NfolFaL7v/7nvnim4pO/aaMKF9xdlzKmngisOrLnTiLVpvS7zws/rnUTPRz83Z5W/4kf1dBxX1Dfoz8s3bRtwfqys1fep0SyY/rjwIw9xR62VnNmf6+Jgob+cKUiLZUAtMsNDQyr40MvVi3Y96rQElPzSUerNDY13bpqNGNXAx/8VXlW5xyOq+1mix3UvuNbwvkVpgWcWdhxhuhgPpx5WeXbG4q9glxgI6AU33klC2+yJC+zsCuOT9x0e7k3oGIqPaD4MbWpWNmWf2N7jyZOOyv8cKktZkxg1ZGdHTd56T9Mt5xqPvvLqp6sdmuJqBcpb3uhhTuJ7Y2JdoXFabZgSe1H10jl9Re+d72pAHTsWI7GnM3Fzqjyq5KqhaZ3n6rJka3mF6m8ZnvjdT4uXbx+zjVZLxlVvLFtx3lgjkW217TcJhd225SJy+5Qortz+uNcelSpk4+SExJ2qbMZ15VdJWQyWPDp21NX36doYkfPQtidvDKlWrCL/GZv2ajIcG5JTLLYFYFVL3ZNrlSz0mdcW/54idV8ZsOfyNu1KXb+ZEtiv8bTwhtzN08ouHdox7iVvVgH+tX2qedPP2a+lFJRNT3z8QrSucoNL2bsqqNNA5+pjF3N8f0sRhRuEzOTl7Urhy/sJVnYMqqov6M1UJzIqOGwVXJB9OAOFaampj/2U3GN3nH7gt8E6+eDcBX0afZcSdZgXND8ng2dnRr/zqWVp1l6ZQwrXdRNoGgspeCO2t0IOqtXsctsoZKd0mxq+0FPo4qx8mZwtbiR2M5cShzRFa5jt5PqsmZzvLamZ7Z96Hfq+snrNNW7LbxJMsib53nkwRrvSMgfyupAVY9XwztOUXp0y057UEVjTQrOuWv/ZmA94PFB2FJc6CLG9/ydCtdwSZ+4GzX1kr0PPTqjO9D8LoXBGt0kPAde8YHHz645Oe9H1Sv/XN28TUsVgVUvUXPxbNiuSH4hL/7q3kBSfm1KHe96miIPXiOvK6Farxjmmy7JbG5Mua3D4UKuM16S9reUDsfobh9UaWjGUjemgE0PbFfy/05R5j1/OuB128K1/pIRtb7whPJeXHb1BDszsKNDg5/8Q7m7aV5qst6OyQILaTe/S1C7+QHzK3jgJ+xknAWP29xu3tcadNfZVVK8rTnTUl96XYFVBFadRBIJjV5y04LUoGdupx05YZ3aPvlSFVu8cFPAQmFU6qvfq9oprA5QNYiGPvoHdXzhxcraVeL98iK0jU8/WunTL5B/ABlQDbvEfx2v9NjW6Sn59h6XREO7gt//c17fz93VxOvNMy1hX+5MY987f/dhUW9TRdVjCdlIMq7JW+9bNCur1wKBVTcl+WP5BantVcMq8bGnKvnMR2li+xZ5U165Nr0E+rkj12xRrNigTKkUbpNha6/5yTFFX/1olb57o/ZXdb+ytpc/ReO991a2/AjU0NOh3g//XL5teczbtOFAxcZiuNp9YOd0+AvwvkwVFH30amUyC9ttPV9Kubwia9uU625UkFqYos5Lm2N6zCrls7XfTSDa0KjRi+9YMtWN3SGw6im/ANNrKwVq89deKu8xK5XetDFc3HTHhn5BWBCHYxWaMcd63nlhV1opV9ppnGFeFEoa/tHFanzZMSpMZsLCPj82ofZXn6KBM24qL8Q7R9N7lj3pIGXzgzvWiTOtoESiQzqvcr/UfAW++bl2aamOs96ghaoie15U+dy4ctuGw21uXBdk84od2aPmC98S3jKwEOwxtTt7ByNTUqK2xW3JVooblnJcEVj1Vedac3W/pejLHin/uFXKbO+XZ0/oQNN73iRWdCtSiGjilrvlmYuqNGo34irMf5lpWiNB0lfkSYeoFvLfu0Ft//lkFSa2lNccNH/ysYKCE9fKu3zuN/WGt1mZAaquT7xEUwPbKhs0mjEzU5CPn/0X+dl5LgAr+3tlBha+dfOAsHK1EW73fzLdt1N9vVpwDwirGh1U39U3a3YIrCXMFoClmKeO016kkY137tgbyNQ8E6u75d+f1uB/f0f+homazAx8ANOyan7JCUr3ze8spvLST9LEBbeErUhVdiTODg6q7d3P1tjl35x7150NvacdbobDMju+zxyjZMca9X3mx8vmfpBwr7ZUkzCPimZMy66mLswVgbXExV51rNKTWytbhJsydyqv1MEHa+RL5yn40W2qwYpme1Syr6EGl+n00k9fvEId579FU9u3hrVrO3YX6WkOF5mN/HNo9j+wEm5d7/1/mjCtq3BmoM3ABtu6ul7+eF7zLihPlwynJe/or11YdiWPnrUa/P5v3WxkBZXu7likLjfqz4atACRb12jypj8Jc0dgLXGplz5W+YkpVTdvtBu5jZ95TRhWdd/+vIZPFf4uvWnl7toqz64CX2llpXu3q/MDz9XIv/1wVq2s6W3rT1ijQrxQGdsrb1OR7Diodq0r+7ryJRXuHlgcE2HMa7AzOsd+9095v/1n/c+V+WDCyu7eXPxHn6m5LYI2sTkf7capA9/+Zbj2pJPHdIERWEtYIRVRQ+da5bbfXV7ItGQXWO3Q6KcvD1tWS+liqf4uo//3O3X98b+U6e2rjAsFij70IBXaYoqO7LtlVP4OqeuTL9XkQF95KrttqaUaNH7pbeXWVS0WFLVjjcMlZd5yrhabcsEq50QaE0pfea+Cj16pxaJ6BhJW+4elmZYw/1GrlM5sny5c/WRM49f+rbyW4VJkCoHo5klFRmcsy2RvJB7ZouTbTik/ZDZdbSesVbGhPCkl/B4zcJ9qM904H72g/PUaFTRBdHEWYPXY9LA2SjvWfVxkCKv9Q2AtYf6DusK9capiDUlN/uYmLVlht6ddruk3inW0lbeYl10PL6vW5z9BpcbIPrZVKT++/b3PK+9TNb3FelyT196u6Dws9bRXS3CxUmA+EVhLWNEU0HZ9vSq7QkN0aukXisFVG5RQ8/QeRJ6pZU+ObVbDq8s7ve55UVxPuZ4GeWt33nAv1bFa4+8/SzXnczkekN3WRagELCVcIUtY20kPV3F8x+rV8aZW5f62gAtjznHPqP1lF0Hv++RvFO9um16rsGSOQ+trn6Yg4u2+O6byuto++wJlBndMfLDdglO33afIYI1bV3ayRyJK8XoAwsXvd7k9Iyi6shAiZoPAWsIiqcYdO51K5fXMCgt4Ace8ut3Y6F1wnxpinTsKLBNU2WBExceu3MM3eCqsTqrx6MMUZCpbiNhVLTo7NfmpCzXvHrBuoBeG6UJ3C+629elIV2Vg9xKL7BizCkx4RToXwT1kDh/TxYbAWqpm7BG1Q6CF7CLJJyN1WQTUFgZ+pqiJ8/8Sjj+pspZitm9IPZ96+Y79s3bR+rHnK92/ZeeB+kFTCN4xMO+b4UXC1oA34+2whWtyQVcqmF6O6qh2xb/3AnVd8E6VnnZoeYapAwVsfsuoqRPt2CixmM6p9REPDzc1XDDVGaXHr1HqzP9Q85mvlfesI6ZvM8HcEFhLlZ0sUPR36hIJL48FKBCrM/OSL3yE0qP9qrlKATXx2YuVal8brixQ/XShqSDv4d0P+JZSV4MaH3W4glz5sfY+robuLg2/+9eV753n4zaVV8ZOm6+OMZpDFE+2KWheuDX8wrBqimnNr96nyOEdGstv08pPv1alE9fUZlbbPP/IqN3Lq7hjCmw4yzPph2vsLRgb9qtTWvHN/1apNaJCS1HdH3+FSg/pXBz32zmGwFrCxu68W5GmHTXO3OSw4g9eqXoL720y12bzv50Y3shZD+FeWcNZTdzwN3kNlRDwfdPKGlTbh//f9GOqmj70bE0ObimvGWhfs/2rPyvv1j4FNWiVhisHDmRVmtFFW1BGxe4GLaT8YS3KBL3h8l1+LKrxofuUfObDVRPzvFBrxFbS0t6OcSzzVyGek9dTm+3oZys46SBNpreFlUd7zo0PrFfiiYcLc0dgLWHZO7abQmdH95Zv+veLTfV9y6dD4SmHqmRfSqk+3SDVFkHmy1co3to+/bz2895hbSq0J6YfU+pIqPEJDy6HaWXsqqFrhQZP/135e2p0D1L6ujsVbd5Rocj0D6jpRY/SQqiGctPTHxruk1at/Te0dWr4zP3foqXKCxs+M46j7RGLzPNxNdk/cu3NOxbvtT/e7od19AotpOaTH6ri1OT0MY21Nmnq+vXC3BFYS1g8a4qhGRvYFXIZNZ5ylOplekzEdHN1fPbFyg0M1LVLMgzLfwwoMlQMB+BDfnnjypaPPmP6can3PVXpga3TrasgKMmbKClyU21nVOYuukfxhpYd41ilkppfcMIex9hqqRrKiVMevNMuMyXTnZooHPgLitqdtmcOoZrWRsMx6+a9W7BwyX3l7XMqciNjan9n5b2u95iReb6SFyh6zEHhGoLlz5ljbCcD3VmHrvEliMBawjKX3lNuXVSUJrJqfvrjFNQhNKphFSQi6vnzaZrauq3u9xlVW1ADH/utGno6p1tZtrsr+YSHmaSKqhj11HTqY02wV1pX4YKvPRr4wK+qv4lqJXL3iHnK6IxxRk9Zb0x6Rrm7qF4THarPEzysS7HutnDrmfBjE6DRmGkB3jWoAxX0TqiU31F5sr9zQ+caleLze04UrtmoZOPKMPxD5v30OpLS41bXdfJIUJ1scfJBpuaoHaeRCbBcfkSRDBMu9geBtYRFzBhMJB/dUbM0gZHzJhQ55ZDww1pevGHLqrtR3Ve8VxNDG8ph4XsLMknRu3KTosXkjCnudrmmPpWOW6Pi0V2aSu8cpl66JP+KTZXjU7tw9/IlZa++Y3o1ePtU2d4hrfjEq1Vqi5cDv8YF7HTFwvxp/86/aWqgd7oVbDcDnLzxTvnZA38NvmlglPomd5q9OpXplX/CuunXcaDsz4hOFjT59zvLx9Qy3Y7pbdvU+a1XK2iq7zG1K6us+tLrldnWt+OYmnHBqYtvL+9WjTkjsJYw34zFTF53+47ZSOavXP+w2j7/UhVbyxdvLbpJgoSv2DtPVtef3xYOMIer7iai4esJ75WpM7vNyPgPLlKkuWE6MIvpjFKnnaK2zz5XheGJyo4egeKd7Rp4z6/LkyLqMItr7GMXKNWzNuwis+yeZWPb71LnJf+j4NC2mr+Gaiu484K3K5se3zHGaN6reKpN6W/M38KxY7+8WtGmpun3ID88rs5Pv1yl6Pwc6+rPGHvPH5XsWhOuAWn50Ygmtm1QzyWnKViVqssxVXdSXRe9VaO990yHp+0WbOxYpakvXSHsHwJriZv6/KVq6OqZLhDtMkXpbVu06vIPKDj1YJXmqXvQFjqFg5sU+8CT1XPt6Yo/76FKb9pULhDN1+OtLZp65ZmKNCW0ELI/uknJphXTrSzPbj1h/rPLVVWXr7LjXPGgWd51W1UP4UzG/inlL79bXmOi/B555VluU7196vr9WxT76Kkqrmma93Et+56UkhHF/v1YdV/7XqVLg+XxzsrOyrZFEBkpyr95/nbrLZ53txpSneFWLZY9N9IT29VyzutUWr33G3xn2yoKW1mbJpX564bydvGVlr3n+Rrtu1+d5/+PGj/x7LAFO9+zP8NjaiqCkTc+Tm1//m9NmlZ8+J765YphJJlQ5qb7Fdk+5cR9bYsR24ssYWHXxPpR+XeamnOPeavtGILt+jIX8ciGO9T6yeea7vVmjV96szJX3qvMDesViUT33glmB+JthbEppuYnPsR0+yUUOapHrQ95uLLRMeVHx0wL4b7yPTDR8n1grWuP1LZTPyFvNKvGFWs02btZ9eZlixr53VVKPPVIFadyM/ZIDKZv4ow2pzT8vfPr1l0z3SJ4+6/Ude37NVnaWh5Li5S3NJnYcr9iJx+q1LMfJW8ib96nvyrYMKrxP/1D9l3y5vA6SyaU7f1IzU86SjqsXbGj1yh1+JFKj27W+Lb15fvBouWwKuWKaj/o4dr25A/NW402DJKRnKZu+Kf8I5sVTOXDgtz+XYgW1X3eWzV153rlrrpXE2f/NeyGtEfHto4imyYqFZ9gnzM2q8d08j9/oZ5rPqjRrXeVt4gxv5/vm8raFlOJenyPei57l7Lb+5S5+i7l/r5NU9fcp2g0Nvudt6vXgRkHbX7iQ1XsiqvplIcqasZKp0YGlNnaW95LrXJu2XHBppWHafuzPhAeU1Zr3z8E1hJWvSgGX/kddV/9Pk2MbjKhVQwLRL8hqtzQqHIalffoleaiO0zdDR2mSJvd3iN2Jp298TViV4UwF/nYwH3T/fRh68U8j29aU61th2v70z6myGDGjCHEzPct3N4mmS9cqeYXH2/GrLY+4KZNW6A0Nq/U+I9urnO3QxCueNF38ifUc+V7NTm+tTy93hSytjVsd4jOZPrCR8ZOOlTeEz21veVptm2oufM1NVqp9Zv/TWy7JzwOYYFuVVojbQc9WH2v+pL8oey87dtU/Rnjbz5Ta274tIYmbjOfi1RC0gTMNhMknXHFXvBQrX7tKar2G3qBr8hAoO1P/1Q4DjYb4Ws2FZTeZ31aPX86TeNb7lLYRLUBYo6pPTcntm8MAyX6xEOVeOZD1N344lmf+zs/V+U6MN1+uULOhGClMlaZcWqPtf1NWtcepd5nfEL+VFE12U9tmVjSgRWe8mEXy47PearTibK7Um8BTtLw4jWD+72mQFx51ftMgbglbGHYUJl+PWa8ojA6aQJtUnNWnTZfmVARPp9d4Xz1GmXv2qptTz/d1JaL069loYQ1/KmS8rdskNbEd578Yb/W1qSRMy6QnwvqXKCUJwH42ZL6Tvi4us76H+U7zescHCkf0xldtrbLzr7sycwWzQt/RlCVSoqZ8btYNKne535G3sbxeQurafb3zJW05bkf0cqz3mVa4veEFYUwMG0LygapOVXSvTO6ZO16jiu6pCcdJF28YVZPU51Y4W2fVN+TP6HuP/yv8om0prb3yjdjqars71W+1cGc+2NpTZg/ByRbqD759O9qf5dIS0rJoFO9T/6YvHmsAOz0XMvIkh/D8k0X1/R0ZjNeYW+erUdm2ZW3Z94kWzKhEUnWf9md6sUbyZga53EfVeTerJpWr5Nv+tPD6csHGiIz7iHyzThMatVaJROdGnrtDzX5sp+Uw2r6OcorXky/H+Zv+zrqMXNwuvvtw+eqsXPFTosAh62rppXKffO6HdOR66g6+cUvBBp65pc18akLlepeq1hra7lbqRQc+Pu0K9tNZQtP8/PjHa1KrTxEE9+8QoOP/XRtwsqqnIu++fm9T/qYGj3zvKtWl79WCnZ/HpjAzg4Pq/EhazQX06E1lNHAyR/X6GfPV8dBxyje3h5ObAnDsRbH1Pxcz/z8eFe7mrsPUeGnt6rviR8Pw0rzfEztJKLAdvNX728Lr8H5XT1ksVnSLayIGWgt/rNPsUd2Kzc8plh7i9K33hcujFpr/p3DSpgutmz/UNiaaV9xpLZc+OsFqSHsKBBNl8zrfqrSyqRir320Wp/xeBWTRRMjEWVHhsL7k2Z1r5S9t8XUihOdXebHVmZiDQcaPfMajf3mb4puL29pMl3oVXc8nsyb7p1ymNuurkRHi/K3bq9ff749BuvHVLplULGHtpou0WHZEG3oWaHxr1VaVwulcgzCwPzDnRo465PyTlirxlefqMYHr1EpYd8aX/nshPJDE2F34VzZwjSxorN8vO38jqzpxrpjg0Z/erGCqzaFgemVX0TN3pPpIBnJavhpX1Hh2B51nPYcMw7aLnsqFQpp5ftHw0I/fCmmktm58hHa+Ptfzbmwmp4Fa/8+85/a+sfTVDy6R02vO16pxzzYNN6yYWAXC1lle4fDIJsre29ZYmWHeW9sZdRUStMxTd52h4a+e7Yif+0vj4lVg3Gej2nu0nvVc9orNLz1ryarzHub7NL4zdu1lHk3XHXrXq/SN77pP+Wykh+o4fRTFH30OuVv71X2vRfWfFB9+j4MczE2v+dfVMrmTK35EkX+MVibmuvcXtyOwtELzGBxowrNEaWe+hD5a0yNvileDq3d1T7t99kanWktFrdPaPx8E055T9H+KXkmjLxZTGUrNUSU+PCpiq5rU+H2PmU/fpn8hbg368UPUcPzHxH+Lpmf3qTgovsX/r2ZFlTepsrSUeZ9CnqSyjV6SjxytRqPP0yBrVfYWXD7aiVUW7R2XCxrxhrPvi2c/BIbNR8PTJljvyMow3/V8fefebyLDSY4VqUUObJTySc/ODw3ZXokbCti4guXK3Jb3wG/PzO/v2RvT1zZpHyDqa4d3KbmZzxCJbtwbmNsdsuH2RuTTaXLLjA9/ud/qLR5XBETwr79Uz2mdpJIZaeA+Vb9XfIPalXze58SzkCc+PIV8q7ZPKvJKYvVt77+3b1+fckHFgDADfsKLO7DAgA4gcACADiBwAIAOIHAAgA4gcACADiBwAIAOIHAAgA4gcACADiBwAIAOIHAAgA4gcACADiBwAIAOIHAAgA4gcACADiBwAIAOIHAAgA4gcACADiBwAIAOIHAAgA4gcACADiBwAIAOIHAAgA4gcACADiBwAIAOIHAAgA4gcACADiBwAIAOIHAAgA4gcACADiBwAIAOIHAAgA4gcACADiBwAIAOIHAAgA4gcACADiBwAIAOIHAAgA4gcACADiBwAIAOIHAAgA4gcACADiBwAIAOIHAAgA4gcACADiBwAIAOIHAAgA4gcACADiBwAIAOIHAAgA4gcACADiBwAIAOIHAAgA4gcACADiBwAIAOIHAAgA4gcACADiBwAIAOIHAAgA4gcACADiBwAIAOIHAAgA4gcACADiBwAIAOIHAAgA4gcACADiBwAIAOIHAAgA4gcACADiBwAIAOIHAAgA4gcACADiBwAIAOIHAAgA4gcACADiBwAIAOIHAAgA4gcACADiBwAIAOIHAAgA4gcACADiBwAIAOIHAAgA4gcACADiBwAIAOIHAAgA4gcACADiBwAIAOIHAAgA4gcACADiBwAIAOIHAAgA4gcACADiBwAIAOIHAAgA4gcACADiBwAIAOIHAAgA4gcACADiBwAIAOIHAAgA4gcACADiBwAIAOIHAAgA4gcACADiBwAIAOIHAAgA4gcACADiBwAIAOIHAAgA4gcACADiBwAIAOIHAAgA4gcACADiBwAIAOIHAAgA4gcACADiBwAIAOIHAAgA4gcACADiBwAIAOIHAAgA4gcACADiBwAIAOIHAAgA4gcACADiBwAIAOIHAAgA4gcACADiBwAIAOIHAAgA4gcACADiBwAIAOIHAAgA4gcACADiBwAIAOIHAAgA4gcACADiBwAIAOIHAAgA4gcACADiBwAIAOIHAAgA4gcACADiBwAIAOIHAAgA4gcACADiBwAIAOIHAAgA4gcACADiBwAIAOIHAAgA4gcACADiBwAIAOIHAAgA4gcACADiBwAIAOIHAAgA4gcACADiBwAIAOIHAAgA4gcACADiBwAIAOIHAAgA4gcACADiBwAIAOIHAAgA4gcACADiBwAIAOIHAAgA4gcACADiBwAIAOIHAAgA4gcACADiBwAIAOIHAAgA4gcACADiBwAIAOIHAAgA4gcACADiBwAIAOIHAAgA4gcACADiBwAIAOIHAAgA4gcACADiBwAIAOIHAAgA4gcACADiBwAIAOIHAAgA4gcACADiBwAIAOIHAAgA4gcACADiBwAIAOIHAAgA4gcACADiBwAIAOIHAAgA4gcACADiBwAIAOIHAAgA4gcACADiBwAIAOIHAAgA4gcACADiBwAIAOIHAAgA4gcACADiBwAIAOIHAAgA4gcACADiBwAIAOIHAAgA4gcACADiBwAIAOIHAAgA4gcACADiBwAIAOIHAAgA4gcACADiBwAIAOIHAAgA4gcACADiBwAIAOIHAAgA4gcACADiBwAIAOIHAAgA4gcACADiBwAIAOIHAAgA4gcACADiBwAIAOIHAAgA4gcACADiBwAIAOIHAAgA4gcACADiBwAIAOIHAAgA4gcACADiBwAIAOIHAAgA4gcACADiBwAIAOIHAAgA4gcACADiBwAIAOIHAAgA4gcACADiBwAIAOIHAAgA4gcACADiBwAIAOIHAAgA4gcACADiBwAIAOIHAAgA4gcACADiBwAIAOIHAAgA4gcACADiBwAIAOIHAAgA4gcACADiBwAIAOIHAAgA4gcACADiBwAIAOIHAAgA4gcACADiBwAIAOGGfgZVsTAoAgFpqnEXW+Aq0fq8/JNkoAABqqauzc+8PMFnle55G9vaYI484SgAA1FJHR9feH+BpfbRUCm7zfO+YPT1m3bp1uvZ6ATWRyWY0OTGpUlASFq9IJKJkMqmGRIOAWjjyQUfu/QFBcJsf+Lp1b485+pHHCqiVdDpNWDmgWCxqYmJCQK0cc/Qxe/16ybSwfD+vy/b2oE7Tr3jkg+gWRG0EpUBwgx0/AGph3dp1Jmv23iXoS5f5jzvlWNvC2us41vHHnSCgFlJNKUV87q5Y7GxYpVJNAmrhyac8Ze8PCLT+cU849tZo+YPgR/K8t+7psTawzjn3LA0ODQqYT3ZMhHERYPnq7Ojcd6PIK/cEhlXbovQH7cMrX/FqAQAwn579rOfO4lHBl+3/h4F1/EnHXmb+umxvD7fjWE9+8qkCAGA+PPmUU2cz5HSr7Q60/5gePCgGwYf39V3PeeZztdYMjgEAcCBsV+Czn7nv1pUv70s7/l0xm1aWXTrjv17/pvCJAADYHzZD3vG2d4b39u1VoPWPecLRP6p+uNP0rNm0suw093e87f8ILQDAnK1dsy4Mq31NY7eKheCUmR8/4MaKG6685Ut7mzFYNTWV1tnnnaVLLrlYAADsix2zst2A+2xZWUHw5ceddOzbZn7qAYF1y6W3tOWj3i3mK4doFq697hqmvAMA9sj2yNmZ5rNehMJ0BcYKwbHHnnLsTvcI7/bW9WsvveWQSMyEltSmWbLBdfGlf9bmzZsFAIBdH/D4406c2+ITgUZMV+Cxx59y7Ppdv7THtVauuuqWY+IKQ2tOBgcHddtfb9Fdd92pgaEBDQ0OKW26DwEAS5fdO9FuR2V3+LCLph/9yGNmNU61q1w+OPYJ5RWYHmCvi4Nde8Utr4r43hkCAKDmglc/7gnH/nBPX93napaVltalmkP3IAAAs2a6AXOF4JQ9tayqZrX8cjimFTWhNcuJGAAAzEqg9Xb6+u7GrHY1q2Wy7Q+yMzbsNEMBADAfTKbE9jDBYnfmvMENrS0AwAG6zC5UUVlhadb2e0e2yoQMe4PxMQIAYN/2K6iqDngLUTspI1bS2zzPeyKtLgDATgK7QXDwI7uN1f4GVdW87nkdzigM/CdKpUPleUebF3oIIQYAy0Sg9abMHzF/blXJuzXnlS5/whP2PvNvLv4/9FCf2m7fBoUAAAAASUVORK5CYII=;" vertex="1" parent="1">
          <mxGeometry x="80" y="190" width="108" height="229.12" as="geometry" />
        </mxCell>
        <mxCell id="9b4McayZEU2Zc8lyel-h-45" style="rounded=0;orthogonalLoop=1;jettySize=auto;html=1;exitX=1;exitY=0.5;exitDx=0;exitDy=0;exitPerimeter=0;entryX=0.034;entryY=0.044;entryDx=0;entryDy=0;endArrow=none;startFill=0;entryPerimeter=0;" edge="1" parent="1" source="9b4McayZEU2Zc8lyel-h-3" target="9b4McayZEU2Zc8lyel-h-44">
          <mxGeometry relative="1" as="geometry" />
        </mxCell>
        <mxCell id="9b4McayZEU2Zc8lyel-h-46" style="rounded=0;orthogonalLoop=1;jettySize=auto;html=1;exitX=1;exitY=0.5;exitDx=0;exitDy=0;exitPerimeter=0;entryX=0.024;entryY=0.942;entryDx=0;entryDy=0;endArrow=none;startFill=0;entryPerimeter=0;" edge="1" parent="1" source="9b4McayZEU2Zc8lyel-h-3" target="9b4McayZEU2Zc8lyel-h-44">
          <mxGeometry relative="1" as="geometry" />
        </mxCell>
        <mxCell id="9b4McayZEU2Zc8lyel-h-3" value="" style="shape=cylinder3;whiteSpace=wrap;html=1;boundedLbl=1;backgroundOutline=1;size=15;" vertex="1" parent="1">
          <mxGeometry x="340" y="264.56" width="60" height="80" as="geometry" />
        </mxCell>
        <mxCell id="9b4McayZEU2Zc8lyel-h-17" style="edgeStyle=orthogonalEdgeStyle;rounded=0;orthogonalLoop=1;jettySize=auto;html=1;exitX=1;exitY=0.5;exitDx=0;exitDy=0;entryX=0;entryY=0.5;entryDx=0;entryDy=0;entryPerimeter=0;startArrow=classic;startFill=1;" edge="1" parent="1" source="9b4McayZEU2Zc8lyel-h-2" target="9b4McayZEU2Zc8lyel-h-3">
          <mxGeometry relative="1" as="geometry" />
        </mxCell>
        <mxCell id="9b4McayZEU2Zc8lyel-h-18" value="&amp;nbsp;Supabase API&amp;nbsp;" style="edgeLabel;html=1;align=center;verticalAlign=middle;resizable=0;points=[];" vertex="1" connectable="0" parent="9b4McayZEU2Zc8lyel-h-17">
          <mxGeometry x="-0.0662" y="-1" relative="1" as="geometry">
            <mxPoint x="10" y="-1" as="offset" />
          </mxGeometry>
        </mxCell>
        <mxCell id="9b4McayZEU2Zc8lyel-h-19" value="Users" style="swimlane;fontStyle=0;childLayout=stackLayout;horizontal=1;startSize=26;horizontalStack=0;resizeParent=1;resizeParentMax=0;resizeLast=0;collapsible=1;marginBottom=0;align=center;fontSize=14;" vertex="1" parent="1">
          <mxGeometry x="500" y="160" width="160" height="146" as="geometry" />
        </mxCell>
        <mxCell id="9b4McayZEU2Zc8lyel-h-20" value="UID" style="text;strokeColor=none;fillColor=none;spacingLeft=4;spacingRight=4;overflow=hidden;rotatable=0;points=[[0,0.5],[1,0.5]];portConstraint=eastwest;fontSize=12;whiteSpace=wrap;html=1;" vertex="1" parent="9b4McayZEU2Zc8lyel-h-19">
          <mxGeometry y="26" width="160" height="30" as="geometry" />
        </mxCell>
        <mxCell id="9b4McayZEU2Zc8lyel-h-21" value="Display Name" style="text;strokeColor=none;fillColor=none;spacingLeft=4;spacingRight=4;overflow=hidden;rotatable=0;points=[[0,0.5],[1,0.5]];portConstraint=eastwest;fontSize=12;whiteSpace=wrap;html=1;" vertex="1" parent="9b4McayZEU2Zc8lyel-h-19">
          <mxGeometry y="56" width="160" height="30" as="geometry" />
        </mxCell>
        <mxCell id="9b4McayZEU2Zc8lyel-h-22" value="Email" style="text;strokeColor=none;fillColor=none;spacingLeft=4;spacingRight=4;overflow=hidden;rotatable=0;points=[[0,0.5],[1,0.5]];portConstraint=eastwest;fontSize=12;whiteSpace=wrap;html=1;" vertex="1" parent="9b4McayZEU2Zc8lyel-h-19">
          <mxGeometry y="86" width="160" height="30" as="geometry" />
        </mxCell>
        <mxCell id="9b4McayZEU2Zc8lyel-h-23" value="Created At" style="text;strokeColor=none;fillColor=none;spacingLeft=4;spacingRight=4;overflow=hidden;rotatable=0;points=[[0,0.5],[1,0.5]];portConstraint=eastwest;fontSize=12;whiteSpace=wrap;html=1;" vertex="1" parent="9b4McayZEU2Zc8lyel-h-19">
          <mxGeometry y="116" width="160" height="30" as="geometry" />
        </mxCell>
        <mxCell id="9b4McayZEU2Zc8lyel-h-25" value="Locations" style="swimlane;fontStyle=0;childLayout=stackLayout;horizontal=1;startSize=26;horizontalStack=0;resizeParent=1;resizeParentMax=0;resizeLast=0;collapsible=1;marginBottom=0;align=center;fontSize=14;" vertex="1" parent="1">
          <mxGeometry x="500" y="330" width="160" height="206" as="geometry" />
        </mxCell>
        <mxCell id="9b4McayZEU2Zc8lyel-h-26" value="PlaceID" style="text;strokeColor=none;fillColor=none;spacingLeft=4;spacingRight=4;overflow=hidden;rotatable=0;points=[[0,0.5],[1,0.5]];portConstraint=eastwest;fontSize=12;whiteSpace=wrap;html=1;" vertex="1" parent="9b4McayZEU2Zc8lyel-h-25">
          <mxGeometry y="26" width="160" height="30" as="geometry" />
        </mxCell>
        <mxCell id="9b4McayZEU2Zc8lyel-h-27" value="Created At" style="text;strokeColor=none;fillColor=none;spacingLeft=4;spacingRight=4;overflow=hidden;rotatable=0;points=[[0,0.5],[1,0.5]];portConstraint=eastwest;fontSize=12;whiteSpace=wrap;html=1;" vertex="1" parent="9b4McayZEU2Zc8lyel-h-25">
          <mxGeometry y="56" width="160" height="30" as="geometry" />
        </mxCell>
        <mxCell id="9b4McayZEU2Zc8lyel-h-28" value="gmapsID" style="text;strokeColor=none;fillColor=none;spacingLeft=4;spacingRight=4;overflow=hidden;rotatable=0;points=[[0,0.5],[1,0.5]];portConstraint=eastwest;fontSize=12;whiteSpace=wrap;html=1;" vertex="1" parent="9b4McayZEU2Zc8lyel-h-25">
          <mxGeometry y="86" width="160" height="30" as="geometry" />
        </mxCell>
        <mxCell id="9b4McayZEU2Zc8lyel-h-29" value="Info" style="text;strokeColor=none;fillColor=none;spacingLeft=4;spacingRight=4;overflow=hidden;rotatable=0;points=[[0,0.5],[1,0.5]];portConstraint=eastwest;fontSize=12;whiteSpace=wrap;html=1;" vertex="1" parent="9b4McayZEU2Zc8lyel-h-25">
          <mxGeometry y="116" width="160" height="30" as="geometry" />
        </mxCell>
        <mxCell id="9b4McayZEU2Zc8lyel-h-31" value="LatLng" style="text;strokeColor=none;fillColor=none;spacingLeft=4;spacingRight=4;overflow=hidden;rotatable=0;points=[[0,0.5],[1,0.5]];portConstraint=eastwest;fontSize=12;whiteSpace=wrap;html=1;" vertex="1" parent="9b4McayZEU2Zc8lyel-h-25">
          <mxGeometry y="146" width="160" height="30" as="geometry" />
        </mxCell>
        <mxCell id="9b4McayZEU2Zc8lyel-h-30" value="Title" style="text;strokeColor=none;fillColor=none;spacingLeft=4;spacingRight=4;overflow=hidden;rotatable=0;points=[[0,0.5],[1,0.5]];portConstraint=eastwest;fontSize=12;whiteSpace=wrap;html=1;" vertex="1" parent="9b4McayZEU2Zc8lyel-h-25">
          <mxGeometry y="176" width="160" height="30" as="geometry" />
        </mxCell>
        <mxCell id="9b4McayZEU2Zc8lyel-h-32" value="Users to Locations" style="swimlane;fontStyle=0;childLayout=stackLayout;horizontal=1;startSize=26;horizontalStack=0;resizeParent=1;resizeParentMax=0;resizeLast=0;collapsible=1;marginBottom=0;align=center;fontSize=14;" vertex="1" parent="1">
          <mxGeometry x="700" y="160" width="160" height="146" as="geometry" />
        </mxCell>
        <mxCell id="9b4McayZEU2Zc8lyel-h-33" value="UUID" style="text;strokeColor=none;fillColor=none;spacingLeft=4;spacingRight=4;overflow=hidden;rotatable=0;points=[[0,0.5],[1,0.5]];portConstraint=eastwest;fontSize=12;whiteSpace=wrap;html=1;" vertex="1" parent="9b4McayZEU2Zc8lyel-h-32">
          <mxGeometry y="26" width="160" height="30" as="geometry" />
        </mxCell>
        <mxCell id="9b4McayZEU2Zc8lyel-h-34" value="Created At" style="text;strokeColor=none;fillColor=none;spacingLeft=4;spacingRight=4;overflow=hidden;rotatable=0;points=[[0,0.5],[1,0.5]];portConstraint=eastwest;fontSize=12;whiteSpace=wrap;html=1;" vertex="1" parent="9b4McayZEU2Zc8lyel-h-32">
          <mxGeometry y="56" width="160" height="30" as="geometry" />
        </mxCell>
        <mxCell id="9b4McayZEU2Zc8lyel-h-35" value="UserID" style="text;strokeColor=none;fillColor=none;spacingLeft=4;spacingRight=4;overflow=hidden;rotatable=0;points=[[0,0.5],[1,0.5]];portConstraint=eastwest;fontSize=12;whiteSpace=wrap;html=1;" vertex="1" parent="9b4McayZEU2Zc8lyel-h-32">
          <mxGeometry y="86" width="160" height="30" as="geometry" />
        </mxCell>
        <mxCell id="9b4McayZEU2Zc8lyel-h-36" value="PlaceID" style="text;strokeColor=none;fillColor=none;spacingLeft=4;spacingRight=4;overflow=hidden;rotatable=0;points=[[0,0.5],[1,0.5]];portConstraint=eastwest;fontSize=12;whiteSpace=wrap;html=1;" vertex="1" parent="9b4McayZEU2Zc8lyel-h-32">
          <mxGeometry y="116" width="160" height="30" as="geometry" />
        </mxCell>
        <mxCell id="9b4McayZEU2Zc8lyel-h-37" value="&lt;font style=&quot;font-size: 24px;&quot;&gt;Tables&lt;/font&gt;" style="text;html=1;align=center;verticalAlign=middle;resizable=0;points=[];autosize=1;strokeColor=none;fillColor=none;" vertex="1" parent="1">
          <mxGeometry x="535" y="103" width="90" height="40" as="geometry" />
        </mxCell>
        <mxCell id="9b4McayZEU2Zc8lyel-h-38" value="&lt;font style=&quot;font-size: 24px;&quot;&gt;Junction Tables&lt;/font&gt;" style="text;html=1;align=center;verticalAlign=middle;resizable=0;points=[];autosize=1;strokeColor=none;fillColor=none;" vertex="1" parent="1">
          <mxGeometry x="685" y="103" width="190" height="40" as="geometry" />
        </mxCell>
        <mxCell id="9b4McayZEU2Zc8lyel-h-39" value="Users to Friends" style="swimlane;fontStyle=0;childLayout=stackLayout;horizontal=1;startSize=26;horizontalStack=0;resizeParent=1;resizeParentMax=0;resizeLast=0;collapsible=1;marginBottom=0;align=center;fontSize=14;" vertex="1" parent="1">
          <mxGeometry x="700" y="330" width="160" height="146" as="geometry" />
        </mxCell>
        <mxCell id="9b4McayZEU2Zc8lyel-h-40" value="UUID" style="text;strokeColor=none;fillColor=none;spacingLeft=4;spacingRight=4;overflow=hidden;rotatable=0;points=[[0,0.5],[1,0.5]];portConstraint=eastwest;fontSize=12;whiteSpace=wrap;html=1;" vertex="1" parent="9b4McayZEU2Zc8lyel-h-39">
          <mxGeometry y="26" width="160" height="30" as="geometry" />
        </mxCell>
        <mxCell id="9b4McayZEU2Zc8lyel-h-41" value="Created At" style="text;strokeColor=none;fillColor=none;spacingLeft=4;spacingRight=4;overflow=hidden;rotatable=0;points=[[0,0.5],[1,0.5]];portConstraint=eastwest;fontSize=12;whiteSpace=wrap;html=1;" vertex="1" parent="9b4McayZEU2Zc8lyel-h-39">
          <mxGeometry y="56" width="160" height="30" as="geometry" />
        </mxCell>
        <mxCell id="9b4McayZEU2Zc8lyel-h-42" value="UserID" style="text;strokeColor=none;fillColor=none;spacingLeft=4;spacingRight=4;overflow=hidden;rotatable=0;points=[[0,0.5],[1,0.5]];portConstraint=eastwest;fontSize=12;whiteSpace=wrap;html=1;" vertex="1" parent="9b4McayZEU2Zc8lyel-h-39">
          <mxGeometry y="86" width="160" height="30" as="geometry" />
        </mxCell>
        <mxCell id="9b4McayZEU2Zc8lyel-h-43" value="FriendID" style="text;strokeColor=none;fillColor=none;spacingLeft=4;spacingRight=4;overflow=hidden;rotatable=0;points=[[0,0.5],[1,0.5]];portConstraint=eastwest;fontSize=12;whiteSpace=wrap;html=1;" vertex="1" parent="9b4McayZEU2Zc8lyel-h-39">
          <mxGeometry y="116" width="160" height="30" as="geometry" />
        </mxCell>
        <mxCell id="9b4McayZEU2Zc8lyel-h-49" style="edgeStyle=orthogonalEdgeStyle;rounded=0;orthogonalLoop=1;jettySize=auto;html=1;exitX=0;exitY=0.5;exitDx=0;exitDy=0;entryX=1;entryY=0.5;entryDx=0;entryDy=0;startArrow=classic;startFill=1;" edge="1" parent="1" source="9b4McayZEU2Zc8lyel-h-48" target="9b4McayZEU2Zc8lyel-h-2">
          <mxGeometry relative="1" as="geometry">
            <Array as="points">
              <mxPoint x="220" y="534" />
              <mxPoint x="220" y="305" />
            </Array>
          </mxGeometry>
        </mxCell>
        <mxCell id="9b4McayZEU2Zc8lyel-h-48" value="Google Maps and Places API" style="shape=image;html=1;verticalAlign=top;verticalLabelPosition=bottom;labelBackgroundColor=#ffffff;imageAspect=0;aspect=fixed;image=https://cdn4.iconfinder.com/data/icons/flatified/128/map.png" vertex="1" parent="1">
          <mxGeometry x="306" y="470" width="128" height="128" as="geometry" />
        </mxCell>
      </root>
    </mxGraphModel>
  </diagram>
</mxfile>
